<?xml version="1.0" encoding="utf-8"?>
<!-- Generator: Adobe Illustrator 18.0.0, SVG Export Plug-In . SVG Version: 6.00 Build 0)  -->
<svg version="1.1" id="Layer_1" xmlns="http://www.w3.org/2000/svg" xmlns:xlink="http://www.w3.org/1999/xlink" x="0px" y="0px"
	 viewBox="0 0 1400 980" enable-background="new 0 0 1400 980" xml:space="preserve">
<g>
	<path fill="#231F20" d="M128.3,197.2c0,0-11.7,3.6-18.5,7.4c-6.8,3.7-13.5,6.3-15.4,8.3c-2,2-7.1,5.6-9.4,8.6c-2.3,3-2,5.2-2.2,8.3
		c-0.2,3.1,2.4,7.1,2.4,7.1l2.5-6.9c0,0-1.7,9.1-0.1,13.7c1.6,4.6,10.8,8.1,16.8,11c6,2.9,7.6,5,7.6,5s-10.1-5.2-11.5-5.5
		c0,0,6.9,14.5,13.6,18c6.6,3.5,8.1,3.7,8.1,3.7s-8.4-1.7-14.1-6.2c0,0-0.4,5.8-0.4,13.8s4.4,21.9,4.4,21.9s4.6-1,6.2-2.4
		c1.6-1.4,1.6-1.4,1.6-1.4s-1,2.8-3.8,3.8s-9,3.6-12.1,5c-3,1.4-5.2,1.7-6.4,3.7s-1.7,7.1-1.3,8.8c0.3,1.7,3,2.7,4.6,2.6
		c1.5-0.1,3-1.8,3.1-2.6c0.1-0.8-0.1-2.5-0.1-2.5s0.9,0.2,1.4,0.9c0.5,0.7,0.8,1,1.6,1s1.1-0.6,2.2-1.1c1.1-0.5,1.8-0.5,1.8-0.5
		s-3.5,1.8-5.1,3.4c-1.6,1.6-2.3,3.1-2.3,3.1s1,5.4,2.3,7.5c1.3,2.1,4.3,3.3,6.6,3.1c2.3-0.2,2.4-2.8,2.4-2.8s1.8-1.7,1.7-3.1
		c-0.1-1.4-3.7-2.8-3.7-2.8s3.2-0.1,4.1-1.4c0.9-1.3,3-4.3,5.3-5c0,0-1.9,1.6-2.3,2.6c-0.4,1-0.4,1.4-0.4,1.4s7.6,7.8,9.1,14.2
		c1.6,6.4,5.9,26.3,13.6,44.1c7.7,17.8,19.5,34.9,23.3,41.5c3.9,6.6,9.2,15.5,9.2,15.5l-4.7-4.6c0,0-0.6,3-1.5,4.6
		c-1,1.5-10.8,1-13.5,1s-12.5-1.5-15-0.8c-2.5,0.8-7,4.3-7.7,6.1c-0.7,1.8,2.8,3,3.4,3c0.6,0,2-2.3,2-2.3s-1,2.8-0.1,3.2
		c0.9,0.4,2.9,1.2,4.3,0c1.4-1.2,3.7-2.3,5-2.5c1.4-0.1,1.9-0.1,1.9-0.1s-1,1.7,0.1,2.3c1.1,0.6,3-0.3,4.2,0.3s3,1.9,4.8,1
		c1.7-0.8,2.8-1.9,2.8-1.9s-1,1,0.1,1.2c1.1,0.3,5.9,0.9,7.5,0.3c1.5-0.6,2.8-0.6,2.8-0.6s-1.7,0.8,0.5,1.2
		c2.1,0.3,10.1,0.7,10.1,0.7s-5.2-4.2-4-7.7s2.9-3.8,2.9-3.8s-2.8,2.6-2.2,4.8c0.6,2.2,3.4,5.2,4.4,6.3c1,1.1,1.7,1.7,1.7,1.7
		s-12.6,1.4-19.3,1.3c-6.8-0.1-18.4,0.1-22.6,0.9c-4.2,0.8-9.9,6.1-9.7,7.3s1.8,2.3,3.3,2.1c1.5-0.1,4.6-0.9,4.6-0.9
		s0.5-2.5,1.2-3.3c0.7-0.8,1.4-1.2,1.4-1.2s-2.3,2.2-1.9,4.3c0.4,2.1,3,2.6,4.8,2.3c1.9-0.3,3.4-1.7,3.7-2.9
		c0.3-1.2,0.3-1.9,0.3-1.9s0.7,2.6,1.2,3.1c0.5,0.5,3.6,1.9,5.7,1.1s3.4-2.6,5-2.9c1.7-0.3,2.9-0.2,2.9-0.2s-0.4,2.8,1.4,3.7
		c1.8,0.9,4-0.3,6.3-1.1c2.3-0.8,14.8,0.8,16.6,0.2c1.9-0.6,6.6-2.6,10-2.4s6.6,1,7.7-1c1.1-2.1,2.3-9.8,4.7-12.7s7.8-5,7.8-5
		l-3.5,2.6c0,0,3.1-1.1,6.9-1s7.5,0.8,9.9,0.1s6.1-4.2,6.1-4.2l-0.9,1.9c0,0,14.4,6.1,29.2,10.7c14.8,4.6,35.9,7.9,54.4-3.5
		c18.5-11.3,23.9-29.4,18.1-41.5s-17.7-22.6-25-23.9c-7.3-1.2-13.1-3.6-15,5.4c-1.9,9-3.3,17.5-3.3,17.5l4.7-5.4
		c0,0-3.6,9.1-10.5,14.8s-15.5,10.6-21,11c-5.5,0.4-10.5-1.7-9.2-13.7c1.2-12,3.7-41.4-8.8-67.8c-12.6-26.4-24-38.7-32-48.2
		c-8-9.5-14.5-42.7-14.5-42.7s-8-1-12.5-1.8c-4.5-0.8-8.4-3.6-8.4-3.6s13.3,4.3,23.1,3.7c9.9-0.6,14.6-1.3,16.8-2.6
		c2.1-1.3,5.9-5.5,6.2-12.4s-4.6-14.4-8.6-16.8c-3.9-2.4-9.5-4.8-15.3-5.2s-13.1,0.4-16.7,0.6c-3.6,0.2-6.4,0.3-6.4,0.3l10.6-1.8
		l-4.4-4.1l4.5,2.5c0,0,2.6-5.4,0.7-9.5c-1.9-4.1-8.6-6.9-11.5-7c-2.9-0.1-10.3,0.6-10.3,0.6l3.3,3.8c0,0-9-5.1-17.3-8.6
		S135.4,192.8,128.3,197.2z"/>
	<path fill="#231F20" d="M463.3,225.8c0,0,9.8-4,21-5.2s30.1,1.8,36.9,5.2c6.8,3.4,9.2,5.6,9.2,5.6s-3-3.8-4.6-4.8
		c-1.6-1-1.6-1-1.6-1s6-10.2,12.8-12.9s10.4-4.2,10.4-4.2l-3.7,4.7c0,0,5.3-6.3,10.9-8.6c5.6-2.3,10.7-0.8,11.7,4.1
		s-0.1,15.6,0,23.5c0.1,7.9-3.3,15.1-5.7,18.8c-2.4,3.7-9,7.9-9,7.9s7.1-1.6,11.9-6.4c0,0,11.1,8.1,23,12c11.9,4,29.5,10.1,42,24.6
		s18,44.2,20.4,62.2c2.4,18-9,66-10.6,71.5c-1.5,5.5-6.2,16.1-6.2,16.1l4.8-5.3c0,0,7.7,3.7,15.2,6.6c7.5,2.9,12.5,4.2,12.8,7.7
		c0.2,3.5-14.5,4.8-21.8,4.2c-7.3-0.7-5.7-2.8-15.6,0.2c-9.9,2.9-33.6,4.2-44,4.7c-10.3,0.4-19.4,0-19.4,0l-4.3-7.3
		c0,0,1.1,7.3,0.4,10.6c-0.7,3.3-14.3,5.3-20.7,5.7c-6.4,0.4-11.9,2-17.6,2.4c-5.7,0.4-5.7-1.3-9.2-1.5c-3.5-0.2-12.1,2.3-14.3,1.6
		c-2.2-0.7-2.6-2.5-6.2-2.5s-5.7-1.8-2.6-4.8c3.1-3.1,5.1-5.3,11.9-5.5c6.8-0.2,18.5-0.7,25.1-2.6c6.6-2,9.2-7.7,9.2-7.7
		s-5.3,4.2-10.8,5.5s-7.9,1.1-18,0.9c-10.1-0.2-20.4,1.3-24.2,1.5c-3.7,0.2-2.4-2-6.8-2c-4.4,0-15.8,1.5-18.9,0.2s-0.4-6.6,4.8-8.8
		c5.3-2.2,18.9-3.7,23.3-3.7c4.4,0,7.9,0,7.9,0s-8.1-2.6-14.3-5.7c-6.2-3.1-13.2-10.1-13.2-10.1l7.3-8.1c0,0-11,9-14.3,10.6
		c-3.3,1.5-7.5,0.9-9.7,1.1c-2.2,0.2-4.2,2.2-6.4,1.1c-2.2-1.1-0.2-2.2-3.5-4c-3.3-1.8-4.8-3.7-4.4-5.5c0.4-1.8-0.4-0.4-0.1-3.5
		s7.8-6.2,11.1-8.1c3.3-2,5.5-5.3,5.5-5.3l-6.6,2.2c0,0-4.6-4.2-12.3-10.8s-14.5-16.3-19.8-31.2c-5.3-15,0-35,3.7-49.9
		s20.9-58.5,20.9-58.5l7.5-0.4c0,0-11.9-2.4-16.3-10.8s-7.7-25.1-8.6-33c-0.9-7.9,6.2-16.1,18.5-15c12.3,1.1,25.3,11.2,29,15.7
		s4.4,8.9,4.4,8.9S465.6,223.5,463.3,225.8z"/>
	<path fill="#231F20" d="M887.1,290.2c0,0-0.1,4.7-1.9,9.8c-1.8,5.1-3.8,14.8-3.8,14.8s0.6-10.8,1.3-13.9c0,0-13.1-6.9-25.4-8.8
		c-12.3-1.9-41.6,0.6-57.1,9.5c-15.5,8.9-29.9,22.6-37.5,37c-7.6,14.3-10.2,33-10.1,44.4c0.1,11.4,5,20.2,5,20.2s-4.4-6.1-7-14
		c0,0-3.5-0.7-7.2-0.7c-3.7,0-5.8,0.6-5.8,0.6s7.2,6.1,11.2,12.3c4.1,6.1,7.5,19.6,14.8,26.7c7.3,7.2,12.6,7,12.6,7l0.6-8.6
		c0,0,1.3,18.4,4.1,22.9c2.8,4.5,30.5,10.7,41.9,12.7c11.4,2,24.8,4.2,31.1,3.7c6.3-0.6,9.6-0.7,13-2c3.4-1.3,6.4-4.5,6.4-6.3
		c0-1.8-4.4-3.7-7-6.9c-2.6-3.2-2.9-6.6-6.6-8.9s-14.3-4.2-18.1-4.7s-11.5-1-11.5-1s17.7,0.1,26.4,1s13.4,1.6,13.4,1.6l-1.6-10.2
		c0,0,4.4,5.4,7.5,14.9c3.1,9.5,1.5,14.2,4.7,18.6c3.2,4.4,23.4,7.3,29.9,6.9c6.6-0.4,7.7-2.9,5.3-7.5c-2.5-4.5-2.5-5.1-5.7-7.6
		c-3.2-2.5-3.9-6.6-5.8-9.1c-1.9-2.5-2.5-1.5-3.2-4.5c-0.7-3.1-0.9-9.2-0.9-9.2s0.9,8.8,2.4,10.6c1.6,1.8,3.3,1.9,4.2,3.9
		c0.9,1.9,0.6,2.9,2.5,3.4c1.9,0.5,8.8,1.1,9.4-1.8c0.6-2.8-0.7-5.8-3.7-9.1c-3-3.2-4.9-9.4-4.1-13.4s7.9-13.9,7.9-13.9l-7.4,2.3
		c0,0,5.1-2.3,19.8-9.4c14.7-7.1,21.5-19.1,23-29.8c1.5-10.7-1.1-19.4-1.1-19.4l-7.3,5.6c0,0,5.3-6.5,9.7-11.1s6.3-14.5,5.2-22.1
		c-1.2-7.6-5.1-12.4-5.4-15.5c-0.3-3.1-0.9-11.3-1.9-15.9c-1-4.6-4.9-10.9-4.9-10.9s3.3,3.3,4.1,5.1c0,0,2.9-9.6,11-19
		c8.1-9.4,13.1-18.9,15.9-28.7c2.8-9.8,7.7-26.7,8.1-32c0.4-5.4-2.7-5.5-5.9-3.9c-3.2,1.6-16.8,12.4-26.2,20.5s-18.3,19.2-22.7,26.7
		c-4.4,7.5-4.5,17.4-4.5,17.4l7,2.8c0,0-6.4-1.3-9.5-1.6c-3.1-0.3-8.2-0.3-8.2-0.3l3.1-1.3c0,0,1.9-16.4-0.9-27.6
		c-2.8-11.2-7.6-25.3-13.8-32.1c-6.2-6.8-11.4-13.7-16.1-15.8s-9.1,1.9-10.7,5.6c-1.7,3.7-0.8,3.2-2.2,12
		c-1.5,8.8-3.8,15.5-2.4,28.7c1.4,13.2,3.4,19.1,7.6,25.6s2.8,8.1,3.2,12.7c0.4,4.6,2,8.2,2,8.2l1.8-5.3L887.1,290.2z"/>
	<path fill="#231F20" d="M1309.8,247.3c-10-9.4-31.3-16-35.2-17.1c-3.9-1.1-5.7-0.9-5.7-0.9l-6.3,4.4c0,0,7-5.8,10.1-8.4
		c3.1-2.5,4.1-3.3,4.1-3.3l-12.7-7c0,0-8.2,8.1-13.1,12.2c-4.9,4.2-11.6,9-11.6,9l7.4-7.4c0,0-21.6,0.4-33.1-1.2
		c-11.5-1.6-32.6-6-46.7-4.4c-14.1,1.5-27.7,5.6-42.2,15.9s-22.5,24.7-28.4,36.9c-5.9,12.2-7.3,24-7.3,30.3c0,6.3,2.2,17.3,2.2,17.3
		s-2-5.3-2.7-7.8c-0.7-2.5-2.5-4.7-3.7-4.6c-1.2,0.1-6.8,1.6-14.3,9.8c-7.5,8.2-8.9,18.1-9.6,21.4c-0.7,3.3-0.3,6.6-0.3,6.6
		s7.3-2.3,10.4-4.2c-1.2,0.8-4.1,2.6-7.6,4c-4.6,1.8-7,3-9.7,7.1c-2.7,4-2.9,10.4-2.5,14.7c0.4,4.3,0.4,8.2,0,11.7
		c-0.3,3.5-0.8,5.4-0.9,7.4c0,1.9,0.6,3.1,0.9,3.5s1,0.4,1,0.4s9.1-9.6,14.6-13.8c5.5-4.2,7-5.6,9.9-6.8c2.9-1.3,7.9-2.8,11.2-3.4
		s5.5-2.4,5.5-2.4s-0.4,1.2-2.5,2s-10.1,2.5-12.4,3.5c-2.3,0.9-9.3,5.8-12.6,8.5c-3.3,2.8-9.5,8.9-11,10.8c-1.6,1.9-2.3,2.2-1.6,3.2
		c0.6,1,6.9,0.9,10.2,0.8s15.9-2.5,26.8-7.3c10.9-4.8,22.8-11.2,27.6-15.4c4.8-4.2,12.6-11.9,12.6-11.9l-2.1,3.1c0,0,5.6,4.7,9.9,7
		s7.8,4.3,9.8,6.3s2,2.4,3.4,8.7s2.6,12.1,4.2,17.7c1.6,5.6,2.9,9.6,3,11.5c0.1,2-0.9,3.6-1.8,4.7c-0.9,1-3.3,1.2-5.6,2.8
		s-4.1,5.7-4.1,8c0.1,2.3,1.4,4.2,2.7,5.5c1.2,1.3,3.7,1.9,3.7,1.9s-3.4-0.2-5.2-2.2l-1.8,1.8l8.5,9.3l5.6-5.6l-2.1-1.2
		c0,0,2,1,4.3,0.4s4.9-4.2,5.6-5.6c0.7-1.4,0-3.1,0-3.1s4.5-6.5,7.2-14.7s4-15,4.5-19.6c0.5-4.6,0.8-8.5,0.8-8.5l-4.3-1.5
		c0,0,5.1,0.3,7.8,0.3c2.7,0,4.2-2,4.2-2l-2.1-1.2c0,0,2.5-2.7,2.9-3.6c0.4-0.9-0.4-1.1-0.4-1.1s-1,1.3-2.2,1.1
		c-1.2-0.3-2.9-1-4.7-1.6c-1.8-0.5-4-2.6-4-2.6s2.8,1.6,3.6,1.7c0,0,4.2-23,9-38.3s6.9-20.2,9.7-25.3c2.8-5,5.2-8.6,5.2-8.6l-0.4,2
		c0,0,2,1.3,4.8-0.5c2.7-1.8,3.5-5.4,4.7-6.7c1.2-1.3,2-2.7,1.1-4.8c-0.8-2.1-1.7-2.1-2.4-2.9c-0.8-0.8-2.2-2.4-2.2-2.4
		s2.1,1.4,2.2,1.3c0.2-0.2,1.8-3.1,1.8-3.1l-4.1-0.9c0,0,7.1-0.2,9.4-0.4c2.3-0.2,3.4-0.5,3.5-1.5c0.2-1-0.4-1.8-0.1-2.1
		s1.6-1.6,1-2.4c-0.7-0.8-1.6-1.6-1.6-1.6s1.6-0.2,1.3-1.9c-0.3-1.7-5.2-3.4-5.2-3.4l4.4,1c0,0,15.1-20.8,20.2-26.3
		s13.5-12.3,13.5-12.3s-6.4,6.9-8.5,9c0,0,21.2-2.3,31.8,1.7c10.6,4.1,18.1,8.9,22.6,14c4.5,5.1,9.8,17.7,9.6,22.3
		c-0.2,4.6-2.1,8.1-2.1,8.1s1.3-6.3-1.3-10.6c-2.6-4.4-12.6-10.9-21.5-5.5c-8.9,5.4-14.5,14.9-10.2,24.3c4.3,9.4,14.6,14.3,20.7,14
		s22.6-8.7,25.6-24.8C1327.4,274.5,1319.7,256.7,1309.8,247.3z M1149.1,366.3c-5.2-2.7-15.8-7.5-15.8-7.5l-2,1.2l2-2.3l16.9-18.2
		c0,0-1-2.5-1.5-2.9c-0.5-0.4-8.1,5-8.1,5s7.1-6.8,8.2-6.6c1.1,0.3,2,3.8,3.3,7.5c1.3,3.7,5.8,23.5,6.7,26.5
		c0.8,2.9,1.2,4.4,1.2,4.4S1154.3,369,1149.1,366.3z M1167.8,384.8c0,0-0.6,17-3.6,24.3l1.6-11.1l-4.1-19.1c0,0,5.6,3.9,7,5
		c1.4,1.1,2.6,1.7,2.6,1.7L1167.8,384.8z M1193.4,301.4c-1.6,2.4-8.6,13.5-13.2,23.7s-7.9,28.9-9.2,34c-1.4,5.1-0.4,3.5-0.4,4.5
		c0.1,1,0.2,2,0.3,3.6c0.1,1.6,1.8,4.4,1.8,4.4s-1.5-1.5-2.3-3.1s-0.1-2.5-0.4-4.3c-0.3-1.9-8.9-35-10.7-38.1s-6.2-3.6-6.2-3.6
		c6.6-1.3,8.1,5,8.1,5s4.3-5.3,9.3-10.5c5-5.2,19.6-21.8,19.6-21.8s0.5,1.1,1.1,3.2c0.6,2,1.4,2.3,1.4,2.3l4.2-3.6
		C1196.6,297.1,1195.1,299,1193.4,301.4z M1200.9,286.8c-1.5-0.8-4-2.9-4-2.9l1.9-1.5c0,0,1.5,1.3,2.6,2.6c1.1,1.3,2.7,2.6,2.7,2.6
		S1202.4,287.7,1200.9,286.8z M1296,292.9c-0.7-0.9,0.7-2.8,0.3-3.2c-0.5-0.4-1.2-0.7-1.2-0.7c2.9-1.6,5.2,0.8,5.1,2.7
		C1300,293.7,1296.6,293.9,1296,292.9z"/>
	<path fill="#231F20" d="M340.5,574.5c-2.7-6.1-8.8-18.2-14.9-21s-8.5-4.4-18.4-1.3c-9.9,3.1-14.4,3.7-14.4,3.7l2.7,6.8
		c0,0-7-9.4-14.8-13.5s-27.5-10.9-39.8-10.3c-12.3,0.6-25.5,3.9-25.5,3.9s5.9,4.1,7.2,8.6c0,0-5.3-5.8-9.4-7.6s-9.9-0.5-13,2.2
		c-3.1,2.7-4,3.2-6,8.2c-2,5-4.4,9.6-4.4,9.6l4.1-13.5c0,0-10.1,3.5-14.3,7.2c-4.2,3.8-8.8,8.1-11.6,12.1s-1.7,4.4-6.2,7.3
		c-4.5,2.9-11.7,8.7-22.9,25.2c-11.1,16.5-12.6,23.7-18.3,33.2c-5.8,9.5-8.2,11.8-17.7,24.7s-15.6,30.8-18,37.7
		c-2.5,6.9-3.8,8.9-6,11.4c-2.2,2.5-2.3,10-1.9,11.5c0.3,1.5,1.2,1.9,0.6,3.6s-2.4,3.6-2.4,5.6s1.7,2.3,2,3.5c0.3,1.2-0.3,2,0,3.9
		c0.3,1.9,2.2,3.1,2.5,4.5c0.3,1.4-0.1,1.1,0.3,2.9c0.3,1.8,0.6,2.2,0.6,2.2l1.7-3.6c0,0-2.2,6.8-2.5,9.5c-0.3,2.7,2.1,5.4,3.5,5.9
		c1.4,0.5,2,0,3.3-0.9s6.5-8.5,6.5-8.5s-3.7,8.1-3.4,9.6c0.3,1.5,3,3.6,6.6,2.4c3.6-1.2,9.1-4.9,11.1-8c1.9-3.2,2.3-3.8,3.4-5.2
		c1.1-1.4,1.4-4.2,1.7-6.3c0.3-2.1,0.3-2.8,0.3-2.8s0.4,2.6,0.3,4.4s-0.5,3.1-0.5,3.1s2.4-2.1,4-3.8c1.6-1.7,2.6-1.8,6.1-1.4
		c3.5,0.3,9.9,2.1,19.1,2.3c9.2,0.1,18.8-0.4,18.8-0.4s0.6-8.9,1.6-12.2c0.9-3.3,2.7-6.9,2.3-10.1c-0.5-3.2-2.3-14.8-2.3-14.8
		s3.5,13.7,3.5,16.3c0,2.7-1.5,5.1-2.3,8.3c-0.8,3.2-1.2,8.2-1,12.9s1,11.2,0.9,14.3s0.1,3.7,1.9,2.6s2.6-2.5,2.6-2.5l0.8-4.1
		c0,0,0.5,12.2,2.6,15.1s3.5,3.8,6.4,4.1c2.9,0.2,7.8,0,8.4-0.6c0.5-0.6,0.7-8.5,0.7-8.5l1.1,7.4c0,0,2.2,1.1,5.8,1s6.5-1.2,6.7-2.1
		c0.2-0.9-1.4-3.6-1.7-6.8c-0.3-3.2,0.5-2.7-0.7-6.3s-2.5-18.5-2.5-21.7s-1.2-4.6-1.4-9.9c-0.2-5.3-0.5-8.7,0.3-11.3
		s1.9-6.1,1.9-6.1s-2.2,7.4-1.8,12.2c0.4,4.9,2.1,14.6,2.1,14.6l1.9-1.3l3.2-4.7c0,0-2,4.3-1.6,6.5s3.3,10.9,4.3,11.6
		s7.7,2.8,14.4,1.9s9.9,1.6,18.9,3.2s13.3,1.3,13.3,1.3l-0.9-11.6c0,0,2.3,12.4,3.1,14.1c0.8,1.6,1.8,7.2,2.3,9.6s2.3,1.1,3.2-0.3
		c0.9-1.4,1.2-3.6,2.5-2.6c1.3,1-0.1,6.9,7.1,9.6s14.4,1.7,15.5,0.9c1.1-0.8-0.6-2.8-1.6-5s-0.8-4.1-0.8-4.1s1.2,4.7,3.6,6.7
		c2.4,2.1,5.3,2.6,7.8,2.3c2.5-0.3,3.3-0.7,2.4-2c-0.9-1.3-5.6-8.8-5.2-9.8c0.4-1,2.7,0.2,0.3-2.6s-6.6-12.9-7.4-15.9
		s0.1-5.5-2.5-9.3c-2.6-3.8-3.4-5.6-4.1-13.7c-0.7-8.1-0.4-16.8,0.5-23.1c0.9-6.3,2.6-15.9,3.6-17.5c1-1.6,5-3.1,5-3.1
		s-5.7,0.2-11.5-0.9c-5.8-1.1-10.7-3.8-10.7-3.8s13.5,3,19.2,3.3c5.7,0.3,6.6-0.2,10.1-1.2s7-2.1,7-2.1l-3.9-0.7
		c0,0-4.4,1.4-7.1,1.4s-4.8-1.2-4.8-1.2s5.1,0.8,7.5,0.1c2.4-0.6,4.2-1.2,5.4-1.2c1.2,0.1,1.6,1.2,5.6,1c4-0.2,8.8-3.6,10.4-7.4
		c1.6-3.8,2.5-8.7,3.1-11.6c0.6-2.9,0.3-5.2-0.8-6s-2.1-2.8-4.3-3.8c-2.3-1-4.9-1.1-4.9-1.1s3.2-0.1,4.5,0.1s2.7,1.4,3.1,1.9
		c0.4,0.5,0.8,0.5,0.8,0.5s0.4-1.1,0-3.6s-1.7-4.1-2-8.6c-0.3-4.5-0.5-7.1-1.7-10.4c-1.2-3.4-1.7-2.9-1.6-6.4c0.2-3.5,0.8-6-0.1-8.1
		c-0.9-2.1-2.7-5.8-2.8-8c-0.2-2.2,2.5-3.1,1.6-6.1s-1.6-3.3-0.4-7.4c1.3-4.1,5.3-8.2,5.3-8.2l-3.4,6.3c0,0,2.7-0.3,4.1,1
		c1.5,1.3,1.7,3.8,4.7,4.9c2.9,1.2,4.1,2.7,7.1,6.1c2.9,3.5,6,5.6,9.1,4.7c3.1-0.9,3.1-2.7,7.8-1.6c4.7,1.2,8.4,2.7,8.5-0.6
		C349.8,594.5,343.1,580.6,340.5,574.5z M241.3,720c-3.9,0-7.2,1.9-7.2,1.9s3.2-2.4,5.7-3c2.5-0.6,3-2.2,1.8-4.2c-1.2-2,0-1.6-0.8-6
		c-0.8-4.4-0.5-6.6,0-7.6s0.8-2.2,0.8-2.2s-2.5-4.9-1.9-9.6c0,0,0,2.8,2.6,8.2c2.6,5.3,2.8,6.8,4.2,12.3s2.7,12.6,2.7,12.6
		S245.3,720,241.3,720z"/>
	<path fill="#231F20" d="M426.7,636.9c0,0-10.1,9-12.5,15.5c-2.4,6.5,0,16,0,16s-5.2,9.2-6,10.7c-0.9,1.5,0.7,1.1,2.6,0
		c1.9-1.1,7.2-6.9,7.2-6.9l0.7-3c0,0,0.2,3.6,0.1,6.2c-0.1,2.6-9.1,14.7-8,15.7c1.1,1.1,5.8-2,8.1-6.2s4.1-7.2,6.6-8.4
		c2.5-1.2,6.2-2,6.2-2l-5.2,3.6c0,0,10.8-2.2,22.9,5.2s25.6,22.2,35.2,36.8c9.6,14.6,14.7,23.1,24.7,27c9.9,3.9,54.2,2.8,64.8,0
		c10.7-2.8,24.9-1.6,46-3.4c21.1-1.8,28.2-5,40-7.8s16.2-2.5,14.6-4.8s-29.7-12.7-29.7-12.7s-9,4.5-14.3,5.4s-11,0.6-11,0.6
		s23.2-4.6,34.6-17.9c11.4-13.3,15.4-33.4,13.5-48.3c-1.9-15.1-9.9-29.1-20.7-39.6c-12-11.7-26.9-17.4-43.4-19.4
		c-4.4-0.5-8.8-0.9-13.2-1c-14.5-0.5-29.3,1.5-42.4,7.8c-14.5,7-24.8,19.4-33.8,32.5c-1,1.4-1.9,2.8-2.8,4.2
		c-4.5,7.1-7.6,16.6-7.6,16.6l10.4,10.9c0,0-27.9-17.3-36.2-21.6c-8.3-4.3-26.8-11.1-30.3-12.2c-3.6-1.1-5.9-1.5-5.9-1.5l-0.8,5
		c0,0-3-17.9-3.3-25.8c-0.4-7.9-2.8-21.4-6.6-22.3c-3.8-0.8-6.3,1.5-4.5,5.8s3.2,3.3,3.7,9.1c0.5,5.8,0.6,21,0.6,21l-2.4-14.2
		c0,0-13.7-37.5-18.6-43.5c-4.9-5.9-6.8-7.9-7.9-6c-1.2,1.9-3.4-0.4,1.5,7.9c5,8.3,15.2,34.8,17.1,42.6
		C422.1,622.3,426.7,636.9,426.7,636.9z"/>
	<g>
		<path fill="#231F20" d="M735.2,572c0,0,2.5-2.1,6.7-3.5c4.2-1.3,9.2-1.1,11-1.8c1.8-0.6,4.1-0.8,8.2,0.5c4.1,1.3,6.5,2.3,8.5,3.6
			c2,1.3,3.2,2.5,3.2,2.5l-1.4-3.5c0,0,4-1.9,9.3,0.4c5.3,2.4,5.4,5.7,5.5,8.9s-1.2,6.3-1.2,6.3l-4.2-2.3c0,0,3.7,3.7,5.8,6.4
			c2.1,2.8,2.2,5.1,1.8,8.5c-0.4,3.4-1.3,8.2,1,8.9c2.3,0.8,21.1-9.6,29.7-16.9c8.6-7.3,26.8-23.2,45.9-26.3s42.2-0.9,60.1,16.5
			c17.8,17.4,24.5,34.6,29.2,49.4c4.7,14.8,6,20.2,6,20.2s45.8,24.1,39.1,58.2s-47.9,39.8-80.2,41.5c-32.2,1.7-76.3-3-77.4-7.3
			c-1.1-4.3,12.9-7.3,21.9-6.9c9,0.4,13.3,2.4,29.9,3.7c16.5,1.3,50.7-0.4,67.3-7.5s25.6-15.5,26.1-26.6c0.4-11.2-10-22.4-14.9-26.1
			c-4.9-3.7-8.7-5.6-8.7-5.6l-4.3-8.7c0,0,2,12.5,3.9,20.1s2.1,19.6,1.6,24.9c-0.6,5.3-4.2,9.2-5.6,12.5s-5.6,6.6-7.5,6.4
			c-1.9-0.1-1.7-0.7-5.3-0.3c-3.6,0.4-7,1.3-9-1.7c-2-3-0.3-6.3,2.4-7.5c2.7-1.1,2.6,0.9,4.3-2.4c1.7-3.3,1.6-9.7,1.6-11.2
			s-6.2-1.3-18.9-8s-22.1-19.1-22.1-19.1s8.2,14.6,11.4,17c3.2,2.4,4.7,3.7,4.7,3.7s-9.9,0-16.1-1.1s-9.5-3-9.5-3l9.5,6.4
			c0,0-1.3,6.7-4.7,9.2s-20.4,5.6-26.2,4.7c-5.8-0.9-7.5-2.6-12.7-1.1c-5.2,1.5-12,1.1-13.1-1.1c-1.1-2.1,1.5-6.7,6.9-8.2
			c5.4-1.5,11.2-1.7,16.5-0.9c5.4,0.9,12.5-1.7,12.5-1.7l-5.6-2.4c0,0,1.1-3.2-3.2-7.7s-5.6-17-5.6-17l15.7,5.2
			c0,0-16.1-11-26.2-12.7c-10.1-1.7-10.1-2.1-20.8,2.6c-10.7,4.7-21.1,4.5-21.1,4.5l-3.9-10.3c0,0,1.9,9.2-1.9,23.4
			c-3.9,14.2-7.7,22.4-12.7,29.4s-6.4,11.6-9.9,16.1c-3.4,4.5-7.5,5.2-13.5,4.9c-6-0.2-10.5,2.1-14,2.1s-8.8-4.7-5.2-7.1
			c3.7-2.4,9.2-3.4,14.4-5.6s7.7-9.7,8.2-20.2s-2.1-7.7-2.6-11c-0.4-3.2-4.1-6.4-4.1-6.4s3.9,9.5,3.9,13s-1.5,10.9-2.1,13.1
			c-0.6,2.3-0.8,5.6-2.8,6.7c-2,1.1-6-0.1-8.7,0.5c-2.7,0.6-6.3,1.9-11.9,1.5c-5.6-0.4-8.2-1.4-7.3-3.9c0.9-2.5,3-4.8,8.6-5.8
			s8-1.5,10.4-5.1c2.5-3.5,2-17.5-2.5-28.7c-4.5-11.2-5.4-12.9-14.2-21.3c-8.8-8.4-12.6-23-14.1-29.8c-1.5-6.8-2.4-13.9-2.5-17.4
			c-0.1-3.5,0-4.5,0-4.5l4.4,5.1c0,0-5.7-8.4-7-14.7c-1.3-6.3,0.3-17.6,1.2-23.1c0.9-5.5,3.3-9.2,6.3-9.7s4.7,1.8,4.7,1.8L735.2,572
			z"/>
	</g>
	<path fill="#231F20" d="M1288.8,670.8c0,0,0.2-1.2-2.1-7c-2.3-5.8-10-21.4-13.5-31.3c-3.5-10-1.4-10.2-6-23
		c-4.6-12.8-20.8-27.1-20.8-27.1s-5.8,5-8.7,7.1s-5.8,6.4-10.9,8.4c-5.1,2-14.9,2.2-15.3,2.2s4.5-0.7,11-2.7c6.5-2,8-4.6,16.8-12
		c8.8-7.3,10.7-13.9,11.4-19.4c0.7-5.5-1-10.3-5.5-15.2c-4.4-4.9-12.7-8.4-23.6-8.7c-10.9-0.3-18.1,5-21.6,8.2
		c-3.5,3.3-6.7,8.5-8.2,9.9s-8,4.1-8,4.1s4.2-3.5,5.7-5.5c1.5-2,3.5-7.2,8-12.8c4.5-5.6,1.9-5.6,5.3-9.1s4.8-6.6,2.7-9.4
		s-13.5,0.9-22.8,5.2c-9.3,4.3-17,17.2-17,17.2l9.1,4.9c0,0-15.1-3.8-30.4-4.8c-15.3-1-35.5-1.9-50.8,0c-15.3,1.9-26,5.7-26,5.7
		c-8.9,5.4-1.4,16.2,0,17.2c1.4,1,1.2,7.7,6.4,14.6c5.2,7,3.1,3.8,5.7,8.9c2.6,5.1,14.1,17.2,22.5,24.2s30.5,17.6,30.5,17.6
		l-17.8-6.8c0,0-1,9.4,1.4,16.9c2.4,7.5,8.5,20.7,8.5,20.7s7.2,8.3,9.4,13.4s4.6,18.3,5.1,28.7c0.4,10.4-0.6,14-0.6,14
		s-5.1,1-8.4,1.2s-4.5,3.3-7.8,4.3s-3.9,0.2-7.8,1.5c-3.9,1.3-3,5.5-2.2,7.9c0.9,2.4,6.4,0.7,6.4,0.7l3.3,2.8c0,0-3.3,4-5,7.3
		c-1.7,3.3-1,3.9,1.7,4.7s3.8-1.1,6.7,0c2.9,1.1,3.2,1.5,6.4-0.9c3.2-2.4,4.6-2.7,8.1-3c3.5-0.3,3.8,4.4,6.8,4.6s3.1-1.7,1.6-5.1
		c-1.6-3.3-2.8-6.4-1.7-7.8c1-1.4,1.9-1.9,4.1-4.4c2.2-2.5,4.8-3,7.9-2.6c3.1,0.3,2.9,4,5.4,3.7s1-3.5,2-6.2c1-2.7,3.1-1.9,5.9-2.5
		s1.7-2.2,6.1-5.2s17.3-11.9,17.3-11.9l-5.6-4.7l10.5,5.2c0,0-0.7,6.4-2.8,13.4c-2.1,7-4.9,12.2-11.8,14.3c-7,2.1-4.1,0.2-8.7,2
		c-4.6,1.8-6.4,5.6-6.6,7.5c-0.3,1.9,1.7,3.4,5.8,3.5c4.2,0.1,0.8,2.4,5.3,3.2c4.5,0.8,4.4,0,6.7,0.4s5.1,2.3,8.1-1.2
		c3-3.5,2.4-3.5,5.2-2c2.9,1.5,4,4.4,7.6,1s-0.5-12.1-0.4-15.4c0.1-3.3,3-17.7,6-23.3s9.3-11.6,9.6-11.7c0.3-0.1-5.7,10.1-5.7,10.1
		s8.1-1.1,15-3.1c6.9-2,16.3-2.4,16.3-2.4s1.2,3.6,0.6,8.8c-0.6,5.2-1.7,8.2-4.4,10.1s-3,0.4-4.4,0.6s-1.7,1.8-1.9,2.9
		c-0.2,1-3,2.5-3.3,2.6c-0.3,0.1-5.8,3.1-6.9,5.3c-1,2.2-0.6,5,1.5,5.1c2.1,0.2,7.1-3.4,7.1-3.4s0,1.6,0.7,3.5
		c0.7,1.9,2.4,3.2,5.9,1.9c3.6-1.3,7-5.2,7-5.2s0.3,5.5,2.3,6.3c1.9,0.8,4.9-1.4,6.1-5.6c1.2-4.2,4.4-6.8,4.4-6.8s3.6,2,4.7,4.6
		c1.1,2.6,2.1,4.4,3.7,4.4s3-3.5,3.2-6.4s-1.9-3.8-2.5-5.4s-4.6-3-5.7-3.9c-1.1-0.9-2.2-4.2-3-11.1c-0.8-6.9-0.9-10.2-0.9-10.2
		s10.8-10.3,15.2-16s5.9-16,5.9-16l1.2,7c0,0,8.5,3.7,14.3,10.1s5.2,18.6,3.8,29c-1.4,10.5-10.7,27.6-17,34.8
		c-6.3,7.2-17.2,12.3-33.4,17c-16.3,4.6-35.1,4.9-50.4,5.8c-15.3,0.9-62-2.1-73.6-3.7c-11.6-1.6-19-8.1-30-10s-24.4,0-24.4,0
		s16.5,0.9,37.2,10s58.5,9.3,101.3,8.4c42.7-0.9,81.5-10.2,94.5-52C1321.8,691.9,1288.8,670.8,1288.8,670.8z M1173.5,713
		c-7.1,3.6-19.6,10.5-19.9,10.5c-0.3,0.1-2.7,7.5-2.7,7.5s-0.4-9.1,4-16c4.4-7,10.6-13.5,10.6-13.5l16,4
		C1181.6,705.5,1180.7,709.4,1173.5,713z"/>
</g>
</svg>
