<?xml version="1.0" encoding="utf-8"?>
<!-- Generator: Adobe Illustrator 19.2.1, SVG Export Plug-In . SVG Version: 6.00 Build 0)  -->
<svg version="1.1" id="Layer_1" xmlns="http://www.w3.org/2000/svg" xmlns:xlink="http://www.w3.org/1999/xlink" x="0px" y="0px"
	 viewBox="0 0 1400 980" style="enable-background:new 0 0 1400 980;" xml:space="preserve">
<style type="text/css">
	.st0{fill:#332C2F;}
	.st1{fill:#120F11;}
	.st2{fill:#E1E1E1;}
	.st3{fill:#B0AFB0;}
	.st4{fill:#514D4E;}
	.st5{fill:#96592F;}
	.st6{fill:#462511;}
	.st7{fill:#A06740;}
	.st8{fill:#B77E62;}
	.st9{fill:#B3784C;}
	.st10{fill:#7C4925;}
	.st11{fill:#E0AF6A;}
	.st12{fill:#B78045;}
	.st13{fill:#573721;}
	.st14{fill:#7C5C46;}
	.st15{fill:#E39E60;}
	.st16{fill:#BA7D44;}
	.st17{fill:#F2EEDF;}
	.st18{fill:#FFFFFF;}
	.st19{fill:#D7D3C8;}
	.st20{fill:#F8BC73;}
	.st21{fill:#F6D9BC;}
	.st22{fill:#915B24;}
	.st23{fill:#D28D53;}
	.st24{fill:#DEAC63;}
	.st25{fill:#AA7833;}
	.st26{fill:#342211;}
	.st27{fill:#8E7565;}
	.st28{fill:#D63D48;}
	.st29{fill:#EAC79D;}
	.st30{fill:#EFD3B9;}
	.st31{fill:#EE8CB9;}
	.st32{fill:#F3C3DB;}
	.st33{fill:#C76D9A;}
	.st34{fill:#C73E83;}
	.st35{fill:#C69458;}
	.st36{fill:#A5733D;}
	.st37{fill:#EACEB1;}
	.st38{fill:#D4A979;}
</style>
<g>
	<g>
		<path class="st0" d="M349.8,334.6c0.1-1,0.1-1.9,0.1-2.9c0.7-0.5,1.2-1.3,1.2-2.2c0-0.9-0.5-1.8-1.2-2.2c0-1-0.1-1.9-0.1-2.9
			c0.7-0.5,1.1-1.4,1-2.3c-0.1-0.9-0.7-1.7-1.4-2.1c-0.1-1-0.2-1.9-0.4-2.9c0.7-0.6,1-1.5,0.8-2.4c-0.2-0.9-0.8-1.6-1.6-2
			c-0.2-1-0.4-1.9-0.6-2.8c0.6-0.6,0.9-1.6,0.6-2.5c-0.2-0.9-0.9-1.6-1.8-1.8c-0.3-0.9-0.6-1.9-0.9-2.8c0.5-0.7,0.7-1.6,0.4-2.5
			c-0.3-0.9-1.1-1.5-1.9-1.7c-0.4-0.9-0.7-1.8-1.1-2.7c0.5-0.7,0.6-1.7,0.2-2.5c-0.4-0.8-1.2-1.4-2.1-1.5c-0.4-0.9-0.9-1.7-1.3-2.6
			c0.4-0.8,0.4-1.7,0-2.5c-0.5-0.8-1.3-1.3-2.2-1.3c-0.5-0.8-1-1.6-1.6-2.4c0.3-0.8,0.3-1.8-0.3-2.5c-0.5-0.8-1.4-1.2-2.3-1.1
			c-0.6-0.8-1.2-1.5-1.8-2.3c0.3-0.8,0.1-1.8-0.5-2.5c-0.6-0.7-1.5-1-2.4-0.9c-0.6-0.7-1.3-1.4-1.9-2.1c0.2-0.9,0-1.8-0.7-2.5
			c-0.7-0.7-1.6-0.9-2.5-0.7c-0.7-0.7-1.4-1.3-2.1-1.9c0.1-0.9-0.2-1.8-0.9-2.4c-0.7-0.6-1.7-0.8-2.5-0.5c-0.8-0.6-1.5-1.2-2.3-1.8
			c0-0.9-0.3-1.8-1.1-2.3c-0.8-0.5-1.7-0.6-2.5-0.3c-0.8-0.5-1.6-1.1-2.4-1.6c0-0.9-0.5-1.7-1.3-2.2c-0.8-0.5-1.8-0.5-2.5,0
			c-0.9-0.5-1.7-0.9-2.6-1.3c-0.1-0.9-0.6-1.7-1.5-2.1c-0.8-0.4-1.8-0.3-2.5,0.2c-0.9-0.4-1.8-0.8-2.7-1.1c-0.2-0.8-0.8-1.6-1.7-1.9
			c-0.9-0.3-1.8-0.1-2.5,0.4c-0.9-0.3-1.8-0.6-2.8-0.9c-0.3-0.8-0.9-1.5-1.8-1.8c-0.9-0.2-1.8,0-2.5,0.6c-0.9-0.2-1.9-0.4-2.8-0.6
			c-0.3-0.8-1-1.4-2-1.6c-0.9-0.2-1.8,0.2-2.4,0.8c-1-0.1-1.9-0.3-2.9-0.4c-0.4-0.8-1.2-1.4-2.1-1.4c-0.9-0.1-1.8,0.3-2.3,1
			c-1-0.1-1.9-0.1-2.9-0.1c-0.5-0.7-1.3-1.2-2.2-1.2s-1.8,0.5-2.2,1.2c-1,0-1.9,0.1-2.9,0.1c-0.5-0.7-1.4-1.1-2.3-1
			c-0.9,0.1-1.7,0.7-2.1,1.4c-1,0.1-1.9,0.2-2.9,0.4c-0.6-0.7-1.5-1-2.4-0.8c-0.9,0.2-1.6,0.8-2,1.6c-1,0.2-1.9,0.4-2.8,0.6
			c-0.6-0.6-1.6-0.9-2.5-0.6c-0.9,0.2-1.6,0.9-1.8,1.8c-0.9,0.3-1.9,0.6-2.8,0.9c-0.7-0.5-1.6-0.7-2.5-0.4c-0.9,0.3-1.5,1.1-1.7,1.9
			c-0.9,0.4-1.8,0.7-2.7,1.1c-0.7-0.5-1.7-0.6-2.5-0.2c-0.8,0.4-1.4,1.2-1.5,2.1c-0.9,0.4-1.7,0.9-2.6,1.3c-0.8-0.4-1.7-0.4-2.5,0
			c-0.8,0.5-1.3,1.3-1.3,2.2c-0.8,0.5-1.6,1-2.4,1.6c-0.8-0.3-1.8-0.3-2.5,0.3c-0.8,0.5-1.2,1.4-1.1,2.3c-0.8,0.6-1.5,1.2-2.3,1.8
			c-0.8-0.3-1.8-0.1-2.5,0.5c-0.7,0.6-1,1.5-0.9,2.4c-0.7,0.6-1.4,1.3-2.1,1.9c-0.9-0.2-1.8,0-2.5,0.7c-0.7,0.7-0.9,1.6-0.7,2.5
			c-0.7,0.7-1.3,1.4-1.9,2.1c-0.9-0.1-1.8,0.2-2.4,0.9c-0.6,0.7-0.8,1.7-0.5,2.5c-0.6,0.8-1.2,1.5-1.8,2.3c-0.9,0-1.8,0.3-2.3,1.1
			c-0.5,0.8-0.6,1.7-0.3,2.5c-0.5,0.8-1.1,1.6-1.6,2.4c-0.9,0-1.7,0.5-2.2,1.3c-0.5,0.8-0.5,1.8,0,2.5c-0.5,0.9-0.9,1.7-1.3,2.6
			c-0.9,0.1-1.7,0.6-2.1,1.5c-0.4,0.8-0.3,1.8,0.2,2.5c-0.4,0.9-0.8,1.8-1.1,2.7c-0.8,0.2-1.6,0.8-1.9,1.7c-0.3,0.9-0.1,1.8,0.4,2.5
			c-0.3,0.9-0.6,1.8-0.9,2.8c-0.8,0.3-1.5,0.9-1.8,1.8c-0.2,0.9,0,1.8,0.6,2.5c-0.2,0.9-0.4,1.9-0.6,2.8c-0.8,0.3-1.4,1-1.6,2
			c-0.2,0.9,0.2,1.8,0.8,2.4c-0.1,1-0.3,1.9-0.4,2.9c-0.8,0.4-1.4,1.2-1.4,2.1c-0.1,0.9,0.3,1.8,1,2.3c-0.1,1-0.1,1.9-0.1,2.9
			c-0.7,0.5-1.2,1.3-1.2,2.2c0,0.9,0.5,1.8,1.2,2.2c0,1,0.1,1.9,0.1,2.9c-0.7,0.5-1.1,1.4-1,2.3c0.1,0.9,0.6,1.7,1.4,2.1
			c0.1,1,0.2,1.9,0.4,2.9c-0.7,0.6-1,1.5-0.8,2.4c0.2,0.9,0.8,1.6,1.6,2c0.2,1,0.4,1.9,0.6,2.8c-0.6,0.6-0.9,1.6-0.6,2.5
			c0.2,0.9,0.9,1.6,1.8,1.8c0.3,0.9,0.6,1.9,0.9,2.8c-0.5,0.7-0.7,1.6-0.4,2.5c0.3,0.9,1.1,1.5,1.9,1.7c0.4,0.9,0.7,1.8,1.1,2.7
			c-0.5,0.7-0.6,1.7-0.2,2.5c0.4,0.8,1.2,1.4,2.1,1.5c0.4,0.9,0.9,1.7,1.3,2.6c-0.4,0.8-0.4,1.7,0,2.5c0.5,0.8,1.3,1.3,2.2,1.3
			c0.5,0.8,1,1.6,1.6,2.4c-0.3,0.8-0.3,1.8,0.3,2.5c0.5,0.7,1.3,1.1,2.1,1.1c0,0,0.1,0,0.1,0c0.6,0.8,1.2,1.5,1.8,2.3
			c-0.3,0.8-0.1,1.8,0.5,2.5c0.5,0.6,1.3,0.9,2,0.9c0.1,0,0.3,0,0.4,0c0.6,0.7,1.3,1.4,1.9,2.1c-0.2,0.9,0,1.8,0.7,2.5
			c0.5,0.5,1.2,0.8,1.8,0.8c0.2,0,0.4,0,0.6-0.1c0.7,0.7,1.4,1.3,2.1,1.9c-0.1,0.9,0.2,1.8,0.9,2.4c0.5,0.4,1.1,0.6,1.7,0.6
			c0.3,0,0.6,0,0.8-0.1c0.8,0.6,1.5,1.2,2.3,1.8c0,0.9,0.3,1.8,1.1,2.3c0.5,0.3,1,0.5,1.5,0.5c0.4,0,0.7-0.1,1-0.2
			c0.8,0.5,1.6,1.1,2.4,1.6c0,0.9,0.5,1.7,1.3,2.2c0.4,0.2,0.9,0.4,1.3,0.4c0.4,0,0.8-0.1,1.2-0.3c0.9,0.5,1.7,0.9,2.6,1.3
			c0.1,0.9,0.6,1.7,1.5,2.1c0.4,0.2,0.7,0.2,1.1,0.2c0.5,0,1-0.2,1.4-0.4c0.9,0.4,1.8,0.8,2.7,1.1c0.2,0.8,0.8,1.6,1.7,1.9
			c0.3,0.1,0.6,0.2,0.9,0.2c0.6,0,1.1-0.2,1.6-0.6c0.9,0.3,1.9,0.6,2.8,0.9c0.3,0.8,0.9,1.5,1.8,1.8c0.2,0.1,0.5,0.1,0.7,0.1
			c0.7,0,1.3-0.3,1.8-0.7c0.9,0.2,1.9,0.4,2.8,0.6c0.3,0.8,1,1.4,2,1.6c0.2,0,0.3,0,0.5,0c0.8,0,1.5-0.3,1.9-0.9
			c1,0.1,1.9,0.3,2.9,0.4c0.4,0.8,1.2,1.4,2.1,1.4c0.1,0,0.2,0,0.2,0c0.8,0,1.6-0.4,2.1-1.1c1,0.1,1.9,0.1,2.9,0.1
			c0.5,0.7,1.3,1.2,2.2,1.2s1.8-0.5,2.2-1.2c1,0,1.9-0.1,2.9-0.1c0.5,0.6,1.2,1.1,2.1,1.1c0.1,0,0.2,0,0.2,0
			c0.9-0.1,1.7-0.7,2.1-1.4c1-0.1,1.9-0.2,2.9-0.4c0.5,0.5,1.2,0.9,1.9,0.9c0.2,0,0.3,0,0.5,0c0.9-0.2,1.6-0.8,2-1.6
			c1-0.2,1.9-0.4,2.8-0.6c0.5,0.4,1.1,0.7,1.8,0.7c0.2,0,0.5,0,0.7-0.1c0.9-0.2,1.6-0.9,1.8-1.8c0.9-0.3,1.9-0.6,2.8-0.9
			c0.5,0.4,1,0.6,1.6,0.6c0.3,0,0.6-0.1,0.9-0.2c0.9-0.3,1.5-1.1,1.7-1.9c0.9-0.4,1.8-0.7,2.7-1.1c0.4,0.3,0.9,0.4,1.4,0.4
			c0.4,0,0.7-0.1,1.1-0.2c0.8-0.4,1.4-1.2,1.5-2.1c0.9-0.4,1.7-0.9,2.6-1.3c0.4,0.2,0.8,0.3,1.2,0.3c0.4,0,0.9-0.1,1.3-0.4
			c0.8-0.5,1.3-1.3,1.3-2.2c0.8-0.5,1.6-1,2.4-1.6c0.3,0.1,0.7,0.2,1,0.2c0.5,0,1-0.2,1.5-0.5c0.8-0.5,1.2-1.4,1.1-2.3
			c0.8-0.6,1.5-1.2,2.3-1.8c0.3,0.1,0.5,0.1,0.8,0.1c0.6,0,1.2-0.2,1.7-0.6c0.7-0.6,1-1.5,0.9-2.4c0.7-0.6,1.4-1.3,2.1-1.9
			c0.2,0,0.4,0.1,0.6,0.1c0.7,0,1.3-0.3,1.8-0.8c0.7-0.7,0.9-1.6,0.7-2.5c0.7-0.7,1.3-1.4,1.9-2.1c0.1,0,0.3,0,0.4,0
			c0.7,0,1.5-0.3,2-0.9c0.6-0.7,0.8-1.7,0.5-2.5c0.6-0.8,1.2-1.5,1.8-2.3c0,0,0.1,0,0.1,0c0.8,0,1.6-0.4,2.1-1.1
			c0.5-0.8,0.6-1.7,0.3-2.5c0.5-0.8,1.1-1.6,1.6-2.4c0.9,0,1.7-0.5,2.2-1.3c0.5-0.8,0.5-1.8,0-2.5c0.5-0.9,0.9-1.7,1.3-2.6
			c0.9-0.1,1.7-0.6,2.1-1.5c0.4-0.8,0.3-1.8-0.2-2.5c0.4-0.9,0.8-1.8,1.1-2.7c0.8-0.2,1.6-0.8,1.9-1.7c0.3-0.9,0.1-1.8-0.4-2.5
			c0.3-0.9,0.6-1.8,0.9-2.8c0.8-0.3,1.5-0.9,1.8-1.8c0.2-0.9,0-1.8-0.6-2.5c0.2-0.9,0.4-1.9,0.6-2.8c0.8-0.3,1.4-1,1.6-2
			c0.2-0.9-0.2-1.8-0.8-2.4c0.1-1,0.3-1.9,0.4-2.9c0.8-0.4,1.4-1.2,1.4-2.1C350.9,336,350.5,335.1,349.8,334.6z"/>
		<circle class="st1" cx="271.6" cy="329.5" r="72.1"/>
		<circle class="st2" cx="265.8" cy="329.5" r="72.1"/>
		<path class="st3" d="M280.6,259c29.9,9.5,51.6,37.5,51.6,70.5s-21.7,61.1-51.6,70.5c32.7-6.9,57.2-35.8,57.2-70.5
			S313.3,265.8,280.6,259z"/>
		<g>
			<circle class="st0" cx="232.8" cy="329.5" r="84.1"/>
			<g>
				<path class="st4" d="M232.8,345.8c-13.7,0-24.4-7.2-24.4-16.3c0-9.1,10.7-16.3,24.4-16.3s24.4,7.2,24.4,16.3
					C257.2,338.6,246.5,345.8,232.8,345.8z M232.8,318.4c-10.4,0-19.1,5.1-19.1,11.1c0,6,8.8,11.1,19.1,11.1s19.1-5.1,19.1-11.1
					C252,323.5,243.2,318.4,232.8,318.4z"/>
				<g>
					<path class="st4" d="M232.8,257.4c-1.4,0-2.6-1.2-2.6-2.6v-8c0-1.4,1.2-2.6,2.6-2.6s2.6,1.2,2.6,2.6v8
						C235.4,256.3,234.3,257.4,232.8,257.4z"/>
					<path class="st4" d="M226.3,257.7c-1.3,0-2.5-1-2.6-2.4l-0.7-8c-0.1-1.4,0.9-2.7,2.4-2.8c1.4-0.1,2.7,0.9,2.8,2.4l0.7,8
						c0.1,1.4-0.9,2.7-2.4,2.8C226.5,257.7,226.4,257.7,226.3,257.7z"/>
					<path class="st4" d="M219.9,258.6c-1.2,0-2.3-0.9-2.6-2.2l-1.4-7.9c-0.3-1.4,0.7-2.8,2.1-3c1.4-0.3,2.8,0.7,3,2.1l1.4,7.9
						c0.3,1.4-0.7,2.8-2.1,3C220.2,258.5,220,258.6,219.9,258.6z"/>
					<path class="st4" d="M213.5,260c-1.2,0-2.2-0.8-2.5-1.9l-2.1-7.8c-0.4-1.4,0.5-2.8,1.8-3.2c1.4-0.4,2.8,0.5,3.2,1.8l2.1,7.8
						c0.4,1.4-0.5,2.8-1.8,3.2C213.9,259.9,213.7,260,213.5,260z"/>
					<path class="st4" d="M207.3,261.9c-1.1,0-2.1-0.7-2.5-1.7l-2.8-7.6c-0.5-1.4,0.2-2.9,1.6-3.4c1.4-0.5,2.9,0.2,3.4,1.6l2.8,7.6
						c0.5,1.4-0.2,2.9-1.6,3.4C207.9,261.9,207.6,261.9,207.3,261.9z"/>
					<path class="st4" d="M201.3,264.4c-1,0-1.9-0.6-2.4-1.5l-3.4-7.3c-0.6-1.3,0-2.9,1.3-3.5c1.3-0.6,2.9,0,3.5,1.3l3.4,7.3
						c0.6,1.3,0,2.9-1.3,3.5C202,264.3,201.6,264.4,201.3,264.4z"/>
					<path class="st4" d="M195.5,267.4c-0.9,0-1.8-0.5-2.3-1.3l-4-7c-0.7-1.3-0.3-2.9,1-3.6c1.3-0.7,2.9-0.3,3.6,1l4,7
						c0.7,1.3,0.3,2.9-1,3.6C196.4,267.3,195.9,267.4,195.5,267.4z"/>
					<path class="st4" d="M190,270.9c-0.8,0-1.6-0.4-2.1-1.1l-4.6-6.6c-0.8-1.2-0.5-2.8,0.6-3.6c1.2-0.8,2.8-0.5,3.6,0.6l4.6,6.6
						c0.8,1.2,0.5,2.8-0.6,3.6C191,270.8,190.5,270.9,190,270.9z"/>
					<path class="st4" d="M184.8,274.9c-0.7,0-1.5-0.3-2-0.9l-5.2-6.2c-0.9-1.1-0.8-2.8,0.3-3.7c1.1-0.9,2.8-0.8,3.7,0.3l5.2,6.2
						c0.9,1.1,0.8,2.8-0.3,3.7C186,274.7,185.4,274.9,184.8,274.9z"/>
					<path class="st4" d="M180,279.3c-0.7,0-1.3-0.3-1.8-0.8l-5.7-5.7c-1-1-1-2.7,0-3.7c1-1,2.7-1,3.7,0l5.7,5.7c1,1,1,2.7,0,3.7
						C181.4,279,180.7,279.3,180,279.3z"/>
					<path class="st4" d="M175.6,284.1c-0.6,0-1.2-0.2-1.7-0.6l-6.2-5.2c-1.1-0.9-1.3-2.6-0.3-3.7c0.9-1.1,2.6-1.3,3.7-0.3l6.2,5.2
						c1.1,0.9,1.3,2.6,0.3,3.7C177.1,283.8,176.4,284.1,175.6,284.1z"/>
					<path class="st4" d="M171.6,289.3c-0.5,0-1-0.2-1.5-0.5l-6.6-4.6c-1.2-0.8-1.5-2.5-0.6-3.6c0.8-1.2,2.5-1.5,3.6-0.6l6.6,4.6
						c1.2,0.8,1.5,2.5,0.6,3.6C173.3,288.9,172.5,289.3,171.6,289.3z"/>
					<path class="st4" d="M168.1,294.8c-0.4,0-0.9-0.1-1.3-0.4l-7-4c-1.3-0.7-1.7-2.3-1-3.6c0.7-1.3,2.3-1.7,3.6-1l7,4
						c1.3,0.7,1.7,2.3,1,3.6C169.9,294.3,169,294.8,168.1,294.8z"/>
					<path class="st4" d="M165.1,300.5c-0.4,0-0.7-0.1-1.1-0.2l-7.3-3.4c-1.3-0.6-1.9-2.2-1.3-3.5c0.6-1.3,2.2-1.9,3.5-1.3l7.3,3.4
						c1.3,0.6,1.9,2.2,1.3,3.5C167.1,300,166.1,300.5,165.1,300.5z"/>
					<path class="st4" d="M162.6,306.6c-0.3,0-0.6-0.1-0.9-0.2l-7.6-2.8c-1.4-0.5-2.1-2-1.6-3.4c0.5-1.4,2-2.1,3.4-1.6l7.6,2.8
						c1.4,0.5,2.1,2,1.6,3.4C164.7,305.9,163.7,306.6,162.6,306.6z"/>
					<path class="st4" d="M160.7,312.8c-0.2,0-0.5,0-0.7-0.1l-7.8-2.1c-1.4-0.4-2.2-1.8-1.8-3.2c0.4-1.4,1.8-2.2,3.2-1.8l7.8,2.1
						c1.4,0.4,2.2,1.8,1.8,3.2C162.9,312,161.8,312.8,160.7,312.8z"/>
					<path class="st4" d="M159.3,319.1c-0.2,0-0.3,0-0.5,0l-7.9-1.4c-1.4-0.3-2.4-1.6-2.1-3c0.3-1.4,1.6-2.4,3-2.1l7.9,1.4
						c1.4,0.3,2.4,1.6,2.1,3C161.6,318.3,160.5,319.1,159.3,319.1z"/>
					<path class="st4" d="M158.4,325.6c-0.1,0-0.2,0-0.2,0l-8-0.7c-1.4-0.1-2.5-1.4-2.4-2.8c0.1-1.4,1.4-2.5,2.8-2.4l8,0.7
						c1.4,0.1,2.5,1.4,2.4,2.8C160.9,324.6,159.8,325.6,158.4,325.6z"/>
					<path class="st4" d="M158.1,332.1h-8c-1.4,0-2.6-1.2-2.6-2.6s1.2-2.6,2.6-2.6h8c1.4,0,2.6,1.2,2.6,2.6S159.6,332.1,158.1,332.1
						z"/>
					<path class="st4" d="M150.4,339.3c-1.3,0-2.5-1-2.6-2.4c-0.1-1.4,0.9-2.7,2.4-2.8l8-0.7c1.4-0.1,2.7,0.9,2.8,2.4
						c0.1,1.4-0.9,2.7-2.4,2.8l-8,0.7C150.6,339.3,150.5,339.3,150.4,339.3z"/>
					<path class="st4" d="M151.3,346.5c-1.2,0-2.3-0.9-2.6-2.2c-0.3-1.4,0.7-2.8,2.1-3l7.9-1.4c1.4-0.3,2.8,0.7,3,2.1
						c0.3,1.4-0.7,2.8-2.1,3l-7.9,1.4C151.6,346.5,151.5,346.5,151.3,346.5z"/>
					<path class="st4" d="M152.9,353.5c-1.2,0-2.2-0.8-2.5-1.9c-0.4-1.4,0.5-2.8,1.8-3.2l7.8-2.1c1.4-0.4,2.8,0.5,3.2,1.8
						c0.4,1.4-0.5,2.8-1.8,3.2l-7.8,2.1C153.4,353.5,153.1,353.5,152.9,353.5z"/>
					<path class="st4" d="M155.1,360.4c-1.1,0-2.1-0.7-2.5-1.7c-0.5-1.4,0.2-2.9,1.6-3.4l7.6-2.8c1.4-0.5,2.9,0.2,3.4,1.6
						c0.5,1.4-0.2,2.9-1.6,3.4l-7.6,2.8C155.7,360.4,155.4,360.4,155.1,360.4z"/>
					<path class="st4" d="M157.8,367.1c-1,0-1.9-0.6-2.4-1.5c-0.6-1.3,0-2.9,1.3-3.5l7.3-3.4c1.3-0.6,2.9,0,3.5,1.3
						c0.6,1.3,0,2.9-1.3,3.5l-7.3,3.4C158.6,367,158.2,367.1,157.8,367.1z"/>
					<path class="st4" d="M161.2,373.5c-0.9,0-1.8-0.5-2.3-1.3c-0.7-1.3-0.3-2.9,1-3.6l7-4c1.3-0.7,2.9-0.3,3.6,1
						c0.7,1.3,0.3,2.9-1,3.6l-7,4C162.1,373.4,161.6,373.5,161.2,373.5z"/>
					<path class="st4" d="M165.1,379.6c-0.8,0-1.6-0.4-2.1-1.1c-0.8-1.2-0.5-2.8,0.6-3.6l6.6-4.6c1.2-0.8,2.8-0.5,3.6,0.6
						c0.8,1.2,0.5,2.8-0.6,3.6l-6.6,4.6C166.1,379.4,165.6,379.6,165.1,379.6z"/>
					<path class="st4" d="M169.4,385.3c-0.7,0-1.5-0.3-2-0.9c-0.9-1.1-0.8-2.8,0.3-3.7l6.2-5.2c1.1-0.9,2.8-0.8,3.7,0.3
						c0.9,1.1,0.8,2.8-0.3,3.7l-6.2,5.2C170.6,385.1,170,385.3,169.4,385.3z"/>
					<path class="st4" d="M174.3,390.6c-0.7,0-1.3-0.3-1.8-0.8c-1-1-1-2.7,0-3.7l5.7-5.7c1-1,2.7-1,3.7,0c1,1,1,2.7,0,3.7l-5.7,5.7
						C175.7,390.4,175,390.6,174.3,390.6z"/>
					<path class="st4" d="M179.6,395.5c-0.6,0-1.2-0.2-1.7-0.6c-1.1-0.9-1.3-2.6-0.3-3.7l5.2-6.2c0.9-1.1,2.6-1.3,3.7-0.3
						c1.1,0.9,1.3,2.6,0.3,3.7l-5.2,6.2C181.1,395.2,180.4,395.5,179.6,395.5z"/>
					<path class="st4" d="M185.4,399.9c-0.5,0-1-0.2-1.5-0.5c-1.2-0.8-1.5-2.5-0.6-3.6l4.6-6.6c0.8-1.2,2.5-1.5,3.6-0.6
						c1.2,0.8,1.5,2.5,0.6,3.6l-4.6,6.6C187,399.5,186.2,399.9,185.4,399.9z"/>
					<path class="st4" d="M191.5,403.8c-0.4,0-0.9-0.1-1.3-0.4c-1.3-0.7-1.7-2.3-1-3.6l4-7c0.7-1.3,2.3-1.7,3.6-1
						c1.3,0.7,1.7,2.3,1,3.6l-4,7C193.2,403.3,192.4,403.8,191.5,403.8z"/>
					<path class="st4" d="M197.9,407.1c-0.4,0-0.7-0.1-1.1-0.2c-1.3-0.6-1.9-2.2-1.3-3.5l3.4-7.3c0.6-1.3,2.2-1.9,3.5-1.3
						c1.3,0.6,1.9,2.2,1.3,3.5l-3.4,7.3C199.8,406.5,198.8,407.1,197.9,407.1z"/>
					<path class="st4" d="M204.5,409.9c-0.3,0-0.6-0.1-0.9-0.2c-1.4-0.5-2.1-2-1.6-3.4l2.8-7.6c0.5-1.4,2-2.1,3.4-1.6
						c1.4,0.5,2.1,2,1.6,3.4l-2.8,7.6C206.6,409.2,205.6,409.9,204.5,409.9z"/>
					<path class="st4" d="M211.4,412c-0.2,0-0.5,0-0.7-0.1c-1.4-0.4-2.2-1.8-1.8-3.2l2.1-7.8c0.4-1.4,1.8-2.2,3.2-1.8
						c1.4,0.4,2.2,1.8,1.8,3.2l-2.1,7.8C213.6,411.3,212.6,412,211.4,412z"/>
					<path class="st4" d="M218.5,413.6c-0.2,0-0.3,0-0.5,0c-1.4-0.3-2.4-1.6-2.1-3l1.4-7.9c0.3-1.4,1.6-2.4,3-2.1
						c1.4,0.3,2.4,1.6,2.1,3l-1.4,7.9C220.8,412.7,219.7,413.6,218.5,413.6z"/>
					<path class="st4" d="M225.6,414.5c-0.1,0-0.2,0-0.2,0c-1.4-0.1-2.5-1.4-2.4-2.8l0.7-8c0.1-1.4,1.4-2.5,2.8-2.4
						c1.4,0.1,2.5,1.4,2.4,2.8l-0.7,8C228.1,413.5,227,414.5,225.6,414.5z"/>
					<path class="st4" d="M232.8,414.8c-1.4,0-2.6-1.2-2.6-2.6v-8c0-1.4,1.2-2.6,2.6-2.6s2.6,1.2,2.6,2.6v8
						C235.4,413.7,234.3,414.8,232.8,414.8z"/>
					<path class="st4" d="M240,414.5c-1.3,0-2.5-1-2.6-2.4l-0.7-8c-0.1-1.4,0.9-2.7,2.4-2.8c1.4-0.1,2.7,0.9,2.8,2.4l0.7,8
						c0.1,1.4-0.9,2.7-2.4,2.8C240.2,414.5,240.1,414.5,240,414.5z"/>
					<path class="st4" d="M247.2,413.6c-1.2,0-2.3-0.9-2.6-2.2l-1.4-7.9c-0.3-1.4,0.7-2.8,2.1-3c1.4-0.3,2.8,0.7,3,2.1l1.4,7.9
						c0.3,1.4-0.7,2.8-2.1,3C247.5,413.6,247.3,413.6,247.2,413.6z"/>
					<path class="st4" d="M254.2,412c-1.2,0-2.2-0.8-2.5-1.9l-2.1-7.8c-0.4-1.4,0.5-2.8,1.8-3.2c1.4-0.4,2.8,0.5,3.2,1.8l2.1,7.8
						c0.4,1.4-0.5,2.8-1.8,3.2C254.7,412,254.5,412,254.2,412z"/>
					<path class="st4" d="M261.1,409.9c-1.1,0-2.1-0.7-2.5-1.7l-2.8-7.6c-0.5-1.4,0.2-2.9,1.6-3.4c1.4-0.5,2.9,0.2,3.4,1.6l2.8,7.6
						c0.5,1.4-0.2,2.9-1.6,3.4C261.7,409.8,261.4,409.9,261.1,409.9z"/>
					<path class="st4" d="M267.8,407.1c-1,0-1.9-0.6-2.4-1.5l-3.4-7.3c-0.6-1.3,0-2.9,1.3-3.5c1.3-0.6,2.9,0,3.5,1.3l3.4,7.3
						c0.6,1.3,0,2.9-1.3,3.5C268.5,407,268.2,407.1,267.8,407.1z"/>
					<path class="st4" d="M274.2,403.8c-0.9,0-1.8-0.5-2.3-1.3l-4-7c-0.7-1.3-0.3-2.9,1-3.6c1.3-0.7,2.9-0.3,3.6,1l4,7
						c0.7,1.3,0.3,2.9-1,3.6C275.1,403.7,274.6,403.8,274.2,403.8z"/>
					<path class="st4" d="M280.3,399.9c-0.8,0-1.6-0.4-2.1-1.1l-4.6-6.6c-0.8-1.2-0.5-2.8,0.6-3.6c1.2-0.8,2.8-0.5,3.6,0.6l4.6,6.6
						c0.8,1.2,0.5,2.8-0.6,3.6C281.3,399.7,280.8,399.9,280.3,399.9z"/>
					<path class="st4" d="M286,395.5c-0.7,0-1.5-0.3-2-0.9l-5.2-6.2c-0.9-1.1-0.8-2.8,0.3-3.7c1.1-0.9,2.8-0.8,3.7,0.3l5.2,6.2
						c0.9,1.1,0.8,2.8-0.3,3.7C287.2,395.3,286.6,395.5,286,395.5z"/>
					<path class="st4" d="M291.3,390.6c-0.7,0-1.3-0.3-1.8-0.8l-5.7-5.7c-1-1-1-2.7,0-3.7c1-1,2.7-1,3.7,0l5.7,5.7c1,1,1,2.7,0,3.7
						C292.7,390.4,292,390.6,291.3,390.6z"/>
					<path class="st4" d="M296.2,385.3c-0.6,0-1.2-0.2-1.7-0.6l-6.2-5.2c-1.1-0.9-1.3-2.6-0.3-3.7c0.9-1.1,2.6-1.3,3.7-0.3l6.2,5.2
						c1.1,0.9,1.3,2.6,0.3,3.7C297.7,385,297,385.3,296.2,385.3z"/>
					<path class="st4" d="M300.6,379.6c-0.5,0-1-0.2-1.5-0.5l-6.6-4.6c-1.2-0.8-1.5-2.5-0.6-3.6c0.8-1.2,2.5-1.5,3.6-0.6l6.6,4.6
						c1.2,0.8,1.5,2.5,0.6,3.6C302.2,379.2,301.4,379.6,300.6,379.6z"/>
					<path class="st4" d="M304.5,373.5c-0.4,0-0.9-0.1-1.3-0.4l-7-4c-1.3-0.7-1.7-2.3-1-3.6c0.7-1.3,2.3-1.7,3.6-1l7,4
						c1.3,0.7,1.7,2.3,1,3.6C306.3,373,305.4,373.5,304.5,373.5z"/>
					<path class="st4" d="M307.8,367.1c-0.4,0-0.7-0.1-1.1-0.2l-7.3-3.4c-1.3-0.6-1.9-2.2-1.3-3.5c0.6-1.3,2.2-1.9,3.5-1.3l7.3,3.4
						c1.3,0.6,1.9,2.2,1.3,3.5C309.7,366.5,308.8,367.1,307.8,367.1z"/>
					<path class="st4" d="M310.6,360.4c-0.3,0-0.6-0.1-0.9-0.2l-7.6-2.8c-1.4-0.5-2.1-2-1.6-3.4c0.5-1.4,2-2.1,3.4-1.6l7.6,2.8
						c1.4,0.5,2.1,2,1.6,3.4C312.6,359.8,311.6,360.4,310.6,360.4z"/>
					<path class="st4" d="M312.7,353.5c-0.2,0-0.5,0-0.7-0.1l-7.8-2.1c-1.4-0.4-2.2-1.8-1.8-3.2c0.4-1.4,1.8-2.2,3.2-1.8l7.8,2.1
						c1.4,0.4,2.2,1.8,1.8,3.2C315,352.8,313.9,353.5,312.7,353.5z"/>
					<path class="st4" d="M314.3,346.5c-0.2,0-0.3,0-0.5,0l-7.9-1.4c-1.4-0.3-2.4-1.6-2.1-3c0.3-1.4,1.6-2.4,3-2.1l7.9,1.4
						c1.4,0.3,2.4,1.6,2.1,3C316.7,345.6,315.6,346.5,314.3,346.5z"/>
					<path class="st4" d="M315.3,339.3c-0.1,0-0.2,0-0.2,0l-8-0.7c-1.4-0.1-2.5-1.4-2.4-2.8c0.1-1.4,1.4-2.5,2.8-2.4l8,0.7
						c1.4,0.1,2.5,1.4,2.4,2.8C317.7,338.3,316.6,339.3,315.3,339.3z"/>
					<path class="st4" d="M315.6,332.1h-8c-1.4,0-2.6-1.2-2.6-2.6s1.2-2.6,2.6-2.6h8c1.4,0,2.6,1.2,2.6,2.6S317,332.1,315.6,332.1z"
						/>
					<path class="st4" d="M307.2,325.6c-1.3,0-2.5-1-2.6-2.4c-0.1-1.4,0.9-2.7,2.4-2.8l8-0.7c1.4-0.1,2.7,0.9,2.8,2.4
						c0.1,1.4-0.9,2.7-2.4,2.8l-8,0.7C307.4,325.6,307.3,325.6,307.2,325.6z"/>
					<path class="st4" d="M306.4,319.1c-1.2,0-2.3-0.9-2.6-2.2c-0.3-1.4,0.7-2.8,2.1-3l7.9-1.4c1.4-0.3,2.8,0.7,3,2.1
						c0.3,1.4-0.7,2.8-2.1,3l-7.9,1.4C306.7,319.1,306.5,319.1,306.4,319.1z"/>
					<path class="st4" d="M305,312.8c-1.2,0-2.2-0.8-2.5-1.9c-0.4-1.4,0.5-2.8,1.8-3.2l7.8-2.1c1.4-0.4,2.8,0.5,3.2,1.8
						c0.4,1.4-0.5,2.8-1.8,3.2l-7.8,2.1C305.4,312.8,305.2,312.8,305,312.8z"/>
					<path class="st4" d="M303,306.6c-1.1,0-2.1-0.7-2.5-1.7c-0.5-1.4,0.2-2.9,1.6-3.4l7.6-2.8c1.4-0.5,2.9,0.2,3.4,1.6
						c0.5,1.4-0.2,2.9-1.6,3.4l-7.6,2.8C303.6,306.5,303.3,306.6,303,306.6z"/>
					<path class="st4" d="M300.5,300.5c-1,0-1.9-0.6-2.4-1.5c-0.6-1.3,0-2.9,1.3-3.5l7.3-3.4c1.3-0.6,2.9,0,3.5,1.3
						c0.6,1.3,0,2.9-1.3,3.5l-7.3,3.4C301.3,300.5,300.9,300.5,300.5,300.5z"/>
					<path class="st4" d="M297.5,294.8c-0.9,0-1.8-0.5-2.3-1.3c-0.7-1.3-0.3-2.9,1-3.6l7-4c1.3-0.7,2.9-0.3,3.6,1
						c0.7,1.3,0.3,2.9-1,3.6l-7,4C298.4,294.7,298,294.8,297.5,294.8z"/>
					<path class="st4" d="M294,289.3c-0.8,0-1.6-0.4-2.1-1.1c-0.8-1.2-0.5-2.8,0.6-3.6l6.6-4.6c1.2-0.8,2.8-0.5,3.6,0.6
						c0.8,1.2,0.5,2.8-0.6,3.6l-6.6,4.6C295.1,289.1,294.5,289.3,294,289.3z"/>
					<path class="st4" d="M290,284.1c-0.7,0-1.5-0.3-2-0.9c-0.9-1.1-0.8-2.8,0.3-3.7l6.2-5.2c1.1-0.9,2.8-0.8,3.7,0.3
						c0.9,1.1,0.8,2.8-0.3,3.7l-6.2,5.2C291.2,283.9,290.6,284.1,290,284.1z"/>
					<path class="st4" d="M285.6,279.3c-0.7,0-1.3-0.3-1.8-0.8c-1-1-1-2.7,0-3.7l5.7-5.7c1-1,2.7-1,3.7,0c1,1,1,2.7,0,3.7l-5.7,5.7
						C287,279,286.3,279.3,285.6,279.3z"/>
					<path class="st4" d="M280.8,274.9c-0.6,0-1.2-0.2-1.7-0.6c-1.1-0.9-1.3-2.6-0.3-3.7l5.2-6.2c0.9-1.1,2.6-1.3,3.7-0.3
						s1.3,2.6,0.3,3.7l-5.2,6.2C282.3,274.6,281.6,274.9,280.8,274.9z"/>
					<path class="st4" d="M275.7,270.9c-0.5,0-1-0.2-1.5-0.5c-1.2-0.8-1.5-2.5-0.6-3.6l4.6-6.6c0.8-1.2,2.5-1.5,3.6-0.6
						c1.2,0.8,1.5,2.5,0.6,3.6l-4.6,6.6C277.3,270.5,276.5,270.9,275.7,270.9z"/>
					<path class="st4" d="M270.2,267.4c-0.4,0-0.9-0.1-1.3-0.4c-1.3-0.7-1.7-2.3-1-3.6l4-7c0.7-1.3,2.3-1.7,3.6-1
						c1.3,0.7,1.7,2.3,1,3.6l-4,7C272,267,271.1,267.4,270.2,267.4z"/>
					<path class="st4" d="M264.4,264.4c-0.4,0-0.7-0.1-1.1-0.2c-1.3-0.6-1.9-2.2-1.3-3.5l3.4-7.3c0.6-1.3,2.2-1.9,3.5-1.3
						c1.3,0.6,1.9,2.2,1.3,3.5l-3.4,7.3C266.3,263.9,265.4,264.4,264.4,264.4z"/>
					<path class="st4" d="M258.4,261.9c-0.3,0-0.6-0.1-0.9-0.2c-1.4-0.5-2.1-2-1.6-3.4l2.8-7.6c0.5-1.4,2-2.1,3.4-1.6
						c1.4,0.5,2.1,2,1.6,3.4l-2.8,7.6C260.4,261.3,259.4,261.9,258.4,261.9z"/>
					<path class="st4" d="M252.2,260c-0.2,0-0.5,0-0.7-0.1c-1.4-0.4-2.2-1.8-1.8-3.2l2.1-7.8c0.4-1.4,1.8-2.2,3.2-1.8
						c1.4,0.4,2.2,1.8,1.8,3.2l-2.1,7.8C254.4,259.2,253.3,260,252.2,260z"/>
					<path class="st4" d="M245.8,258.6c-0.2,0-0.3,0-0.5,0c-1.4-0.3-2.4-1.6-2.1-3l1.4-7.9c0.3-1.4,1.6-2.4,3-2.1
						c1.4,0.3,2.4,1.6,2.1,3l-1.4,7.9C248.1,257.7,247,258.6,245.8,258.6z"/>
					<path class="st4" d="M239.3,257.7c-0.1,0-0.2,0-0.2,0c-1.4-0.1-2.5-1.4-2.4-2.8l0.7-8c0.1-1.4,1.4-2.5,2.8-2.4
						c1.4,0.1,2.5,1.4,2.4,2.8l-0.7,8C241.8,256.7,240.7,257.7,239.3,257.7z"/>
				</g>
				<path class="st4" d="M255.7,271.8c-0.3,0-0.6-0.1-0.9-0.2c-7-2.7-14.4-4-21.9-4c-7.6,0-14.9,1.3-21.9,4
					c-1.4,0.5-2.9-0.2-3.4-1.5c-0.5-1.4,0.2-2.9,1.5-3.4c7.6-2.9,15.6-4.4,23.8-4.4c8.2,0,16.2,1.5,23.8,4.4c1.4,0.5,2,2,1.5,3.4
					C257.7,271.2,256.8,271.8,255.7,271.8z"/>
				<path class="st4" d="M169.2,321.8c-0.1,0-0.3,0-0.4,0c-1.4-0.2-2.4-1.6-2.2-3c1.3-8,4-15.7,8.1-22.8c4.1-7.1,9.4-13.3,15.7-18.4
					c1.1-0.9,2.8-0.7,3.7,0.4c0.9,1.1,0.7,2.8-0.4,3.7c-5.8,4.7-10.7,10.5-14.4,17c-3.8,6.5-6.3,13.6-7.5,21
					C171.5,320.9,170.4,321.8,169.2,321.8z"/>
				<path class="st4" d="M192,382.1c-0.6,0-1.2-0.2-1.7-0.6c-6.3-5.1-11.6-11.3-15.7-18.4c-4.1-7.1-6.8-14.8-8.1-22.8
					c-0.2-1.4,0.7-2.8,2.2-3c1.4-0.2,2.8,0.7,3,2.2c1.2,7.4,3.7,14.5,7.5,21c3.8,6.5,8.6,12.3,14.4,17c1.1,0.9,1.3,2.6,0.4,3.7
					C193.6,381.7,192.8,382.1,192,382.1z"/>
				<path class="st4" d="M232.8,396.6c-8.2,0-16.2-1.5-23.8-4.4c-1.4-0.5-2-2-1.5-3.4c0.5-1.4,2-2,3.4-1.5c7,2.7,14.4,4,21.9,4
					c7.6,0,14.9-1.3,21.9-4c1.4-0.5,2.9,0.2,3.4,1.5c0.5,1.4-0.2,2.9-1.5,3.4C249,395.1,241,396.6,232.8,396.6z"/>
				<path class="st4" d="M273.6,382.1c-0.8,0-1.5-0.3-2-1c-0.9-1.1-0.7-2.8,0.4-3.7c5.8-4.7,10.7-10.5,14.4-17
					c3.8-6.5,6.3-13.6,7.5-21c0.2-1.4,1.6-2.4,3-2.2c1.4,0.2,2.4,1.6,2.2,3c-1.3,8-4,15.7-8.1,22.8c-4.1,7.1-9.4,13.3-15.7,18.4
					C274.8,381.9,274.2,382.1,273.6,382.1z"/>
				<path class="st4" d="M296.5,321.8c-1.3,0-2.4-0.9-2.6-2.2c-1.2-7.4-3.7-14.5-7.5-21c-3.8-6.5-8.6-12.3-14.4-17
					c-1.1-0.9-1.3-2.6-0.4-3.7c0.9-1.1,2.6-1.3,3.7-0.4c6.3,5.1,11.6,11.3,15.7,18.4c4.1,7.1,6.8,14.8,8.1,22.8
					c0.2,1.4-0.7,2.8-2.2,3C296.8,321.8,296.6,321.8,296.5,321.8z"/>
				<g>
					<path class="st4" d="M230,279.8l-5.9-5.9c-0.8-0.8-2.1-0.2-2.1,0.9l0,11.9c0,1.1,1.3,1.6,2.1,0.9l5.9-5.9
						C230.5,281.1,230.5,280.3,230,279.8z"/>
					<path class="st4" d="M232,277.8c0.5,0.5,1.2,0.5,1.7,0l5.9-5.9c0.8-0.8,0.2-2.1-0.9-2.1h-11.9c-1.1,0-1.6,1.3-0.9,2.1
						L232,277.8z"/>
					<path class="st4" d="M233.7,283.5c-0.5-0.5-1.2-0.5-1.7,0l-5.9,5.9c-0.8,0.8-0.2,2.1,0.9,2.1h11.9c1.1,0,1.6-1.3,0.9-2.1
						L233.7,283.5z"/>
					<path class="st4" d="M241.6,273.9l-5.9,5.9c-0.5,0.5-0.5,1.2,0,1.7l5.9,5.9c0.8,0.8,2.1,0.2,2.1-0.9v-11.9
						C243.7,273.7,242.4,273.1,241.6,273.9z"/>
				</g>
				<g>
					<path class="st4" d="M195.7,296.4h-8.4c-1.1,0-1.6,1.3-0.9,2.1l8.4,8.4c0.8,0.8,2.1,0.2,2.1-0.9v-8.4
						C196.9,296.9,196.4,296.4,195.7,296.4z"/>
					<path class="st4" d="M195.7,293.6c0.7,0,1.2-0.5,1.2-1.2V284c0-1.1-1.3-1.6-2.1-0.9l-8.4,8.4c-0.8,0.8-0.2,2.1,0.9,2.1H195.7z"
						/>
					<path class="st4" d="M200.9,296.4c-0.7,0-1.2,0.5-1.2,1.2v8.4c0,1.1,1.3,1.6,2.1,0.9l8.4-8.4c0.8-0.8,0.2-2.1-0.9-2.1
						L200.9,296.4z"/>
					<path class="st4" d="M199.7,284v8.4c0,0.7,0.5,1.2,1.2,1.2h8.4c1.1,0,1.6-1.3,0.9-2.1l-8.4-8.4
						C201,282.3,199.7,282.9,199.7,284z"/>
				</g>
				<g>
					<path class="st4" d="M183.1,332.3l-5.9,5.9c-0.8,0.8-0.2,2.1,0.9,2.1l11.9,0c1.1,0,1.6-1.3,0.9-2.1l-5.9-5.9
						C184.4,331.9,183.6,331.9,183.1,332.3z"/>
					<path class="st4" d="M181.2,330.4c0.5-0.5,0.5-1.2,0-1.7l-5.9-5.9c-0.8-0.8-2.1-0.2-2.1,0.9v11.9c0,1.1,1.3,1.6,2.1,0.9
						L181.2,330.4z"/>
					<path class="st4" d="M186.8,328.6c-0.5,0.5-0.5,1.2,0,1.7l5.9,5.9c0.8,0.8,2.1,0.2,2.1-0.9v-11.9c0-1.1-1.3-1.6-2.1-0.9
						L186.8,328.6z"/>
					<path class="st4" d="M177.2,320.7l5.9,5.9c0.5,0.5,1.2,0.5,1.7,0l5.9-5.9c0.8-0.8,0.2-2.1-0.9-2.1h-11.9
						C177,318.6,176.4,320,177.2,320.7z"/>
				</g>
				<g>
					<path class="st4" d="M199.7,366.6v8.4c0,1.1,1.3,1.6,2.1,0.9l8.4-8.4c0.8-0.8,0.2-2.1-0.9-2.1h-8.4
						C200.3,365.4,199.7,366,199.7,366.6z"/>
					<path class="st4" d="M196.9,366.6c0-0.7-0.5-1.2-1.2-1.2l-8.4,0c-1.1,0-1.6,1.3-0.9,2.1l8.4,8.4c0.8,0.8,2.1,0.2,2.1-0.9V366.6
						z"/>
					<path class="st4" d="M199.7,361.4c0,0.7,0.5,1.2,1.2,1.2h8.4c1.1,0,1.6-1.3,0.9-2.1l-8.4-8.4c-0.8-0.8-2.1-0.2-2.1,0.9
						L199.7,361.4z"/>
					<path class="st4" d="M187.3,362.6h8.4c0.7,0,1.2-0.5,1.2-1.2V353c0-1.1-1.3-1.6-2.1-0.9l-8.4,8.4
						C185.7,361.3,186.2,362.6,187.3,362.6z"/>
				</g>
				<g>
					<path class="st4" d="M235.7,379.2l5.9,5.9c0.8,0.8,2.1,0.2,2.1-0.9l0-11.9c0-1.1-1.3-1.6-2.1-0.9l-5.9,5.9
						C235.2,377.9,235.2,378.7,235.7,379.2z"/>
					<path class="st4" d="M233.7,381.2c-0.5-0.5-1.2-0.5-1.7,0l-5.9,5.9c-0.8,0.8-0.2,2.1,0.9,2.1h11.9c1.1,0,1.6-1.3,0.9-2.1
						L233.7,381.2z"/>
					<path class="st4" d="M232,375.5c0.5,0.5,1.2,0.5,1.7,0l5.9-5.9c0.8-0.8,0.2-2.1-0.9-2.1l-11.9,0c-1.1,0-1.6,1.3-0.9,2.1
						L232,375.5z"/>
					<path class="st4" d="M224,385.1l5.9-5.9c0.5-0.5,0.5-1.2,0-1.7l-5.9-5.9c-0.8-0.8-2.1-0.2-2.1,0.9v11.9
						C222,385.3,223.3,385.9,224,385.1z"/>
				</g>
				<g>
					<path class="st4" d="M270,362.6h8.4c1.1,0,1.6-1.3,0.9-2.1l-8.4-8.4c-0.8-0.8-2.1-0.2-2.1,0.9v8.4
						C268.8,362.1,269.3,362.6,270,362.6z"/>
					<path class="st4" d="M270,365.4c-0.7,0-1.2,0.5-1.2,1.2v8.4c0,1.1,1.3,1.6,2.1,0.9l8.4-8.4c0.8-0.8,0.2-2.1-0.9-2.1H270z"/>
					<path class="st4" d="M264.7,362.6c0.7,0,1.2-0.5,1.2-1.2V353c0-1.1-1.3-1.6-2.1-0.9l-8.4,8.4c-0.8,0.8-0.2,2.1,0.9,2.1H264.7z"
						/>
					<path class="st4" d="M265.9,375v-8.4c0-0.7-0.5-1.2-1.2-1.2h-8.4c-1.1,0-1.6,1.3-0.9,2.1l8.4,8.4
						C264.6,376.7,265.9,376.1,265.9,375z"/>
				</g>
				<g>
					<path class="st4" d="M282.5,326.7l5.9-5.9c0.8-0.8,0.2-2.1-0.9-2.1h-11.9c-1.1,0-1.6,1.3-0.9,2.1l5.9,5.9
						C281.3,327.1,282,327.1,282.5,326.7z"/>
					<path class="st4" d="M284.5,328.6c-0.5,0.5-0.5,1.2,0,1.7l5.9,5.9c0.8,0.8,2.1,0.2,2.1-0.9v-11.9c0-1.1-1.3-1.6-2.1-0.9
						L284.5,328.6z"/>
					<path class="st4" d="M278.8,330.4c0.5-0.5,0.5-1.2,0-1.7l-5.9-5.9c-0.8-0.8-2.1-0.2-2.1,0.9v11.9c0,1.1,1.3,1.6,2.1,0.9
						L278.8,330.4z"/>
					<path class="st4" d="M288.4,338.3l-5.9-5.9c-0.5-0.5-1.2-0.5-1.7,0l-5.9,5.9c-0.8,0.8-0.2,2.1,0.9,2.1h11.9
						C288.7,340.4,289.2,339,288.4,338.3z"/>
				</g>
				<g>
					<path class="st4" d="M265.9,292.4V284c0-1.1-1.3-1.6-2.1-0.9l-8.4,8.4c-0.8,0.8-0.2,2.1,0.9,2.1h8.4
						C265.4,293.6,265.9,293,265.9,292.4z"/>
					<path class="st4" d="M268.8,292.4c0,0.7,0.5,1.2,1.2,1.2h8.4c1.1,0,1.6-1.3,0.9-2.1l-8.4-8.4c-0.8-0.8-2.1-0.2-2.1,0.9V292.4z"
						/>
					<path class="st4" d="M265.9,297.6c0-0.7-0.5-1.2-1.2-1.2h-8.4c-1.1,0-1.6,1.3-0.9,2.1l8.4,8.4c0.8,0.8,2.1,0.2,2.1-0.9
						L265.9,297.6z"/>
					<path class="st4" d="M278.4,296.4H270c-0.7,0-1.2,0.5-1.2,1.2v8.4c0,1.1,1.3,1.6,2.1,0.9l8.4-8.4
						C280,297.7,279.4,296.4,278.4,296.4z"/>
				</g>
				<path class="st4" d="M232.8,318.4c-1.4,0-2.6-1.2-2.6-2.6v-19.6c0-1.4,1.2-2.6,2.6-2.6s2.6,1.2,2.6,2.6v19.6
					C235.4,317.3,234.3,318.4,232.8,318.4z"/>
				<path class="st4" d="M241.4,303h-17.1c-1.4,0-2.6-1.2-2.6-2.6s1.2-2.6,2.6-2.6h17.1c1.4,0,2.6,1.2,2.6,2.6S242.8,303,241.4,303z
					"/>
				<path class="st4" d="M244.8,310.8h-24c-1.4,0-2.6-1.2-2.6-2.6s1.2-2.6,2.6-2.6h24c1.4,0,2.6,1.2,2.6,2.6
					S246.3,310.8,244.8,310.8z"/>
			</g>
		</g>
	</g>
	<g>
		<rect x="456.2" y="237.1" class="st5" width="184.8" height="184.8"/>
		<rect x="547.8" y="237.1" class="st6" width="1.7" height="184.8"/>
		<rect x="456.2" y="328.6" class="st6" width="184.8" height="1.7"/>
		<g>
			<rect x="468.2" y="249" class="st7" width="67.7" height="67.7"/>
			<polygon class="st8" points="469.9,251 535.9,251 535.9,249 468.2,249 468.2,316.7 469.9,316.7 			"/>
			<polygon class="st9" points="456.2,237.1 468.2,249 535.9,249 547.8,237.1 			"/>
			<polygon class="st10" points="547.8,328.6 535.9,316.7 468.2,316.7 456.2,328.6 			"/>
		</g>
		<g>
			<rect x="561.5" y="249" class="st7" width="67.7" height="67.7"/>
			<polygon class="st8" points="563.2,251 629.2,251 629.2,249 561.5,249 561.5,316.7 563.2,316.7 			"/>
			<polygon class="st9" points="549.5,237.1 561.5,249 629.2,249 641.1,237.1 			"/>
			<polygon class="st10" points="641.1,328.6 629.2,316.7 561.5,316.7 549.5,328.6 			"/>
		</g>
		<g>
			<rect x="468.2" y="342.3" class="st7" width="67.7" height="67.7"/>
			<polygon class="st8" points="469.9,344.3 535.9,344.3 535.9,342.3 468.2,342.3 468.2,410 469.9,410 			"/>
			<polygon class="st9" points="456.2,330.4 468.2,342.3 535.9,342.3 547.8,330.4 			"/>
			<polygon class="st10" points="547.8,421.9 535.9,410 468.2,410 456.2,421.9 			"/>
		</g>
		<g>
			<rect x="561.5" y="342.3" class="st7" width="67.7" height="67.7"/>
			<polygon class="st8" points="563.2,344.3 629.2,344.3 629.2,342.3 561.5,342.3 561.5,410 563.2,410 			"/>
			<polygon class="st9" points="549.5,330.4 561.5,342.3 629.2,342.3 641.1,330.4 			"/>
			<polygon class="st10" points="641.1,421.9 629.2,410 561.5,410 549.5,421.9 			"/>
		</g>
	</g>
	<g>
		<path class="st11" d="M847.2,232.2c8.4,0.9,23.8,3.5,36.9,8.4c13.1,4.9,36.3,11.6,47.1,41.4c10.8,29.8,21.2,53,3.8,85.3
			s-21.8,38.7-45,47.8c-23.3,9.2-46.5,17.8-68.6,6c-16.6-5.5-43.6-12.8-52.6-37.5s-26.5-44.3-10.5-84.5c16-40.2,32.7-50.9,45.7-55
			C816.9,240,835.8,231,847.2,232.2z"/>
		<path class="st12" d="M931.2,282.1c-1.8-5-4-9.4-6.4-13.2c0.7,1.6,1.4,3.3,2.1,5.1c10.8,29.8,21.2,53,3.8,85.3
			c-17.4,32.3-21.8,38.7-45,47.8c-23.3,9.2-46.5,17.8-68.6,6c-14.2-4.7-36-10.7-47.7-27.8c9.5,23.5,35.8,30.6,52,36
			c22.1,11.9,45.3,3.2,68.6-6c23.3-9.2,27.6-15.5,45-47.8C952.4,335.1,942,311.8,931.2,282.1z"/>
		<g>
			
				<ellipse transform="matrix(0.364 -0.9314 0.9314 0.364 164.2932 966.8398)" class="st12" cx="790.1" cy="363.1" rx="10.9" ry="10.9"/>
			<g>
				<path class="st13" d="M793.5,353.1c-5.4-2.1-16.1-0.9-16.3,4.9c-0.1,3.5,0.8,6.9,2.6,9.5c1.5,2.3,3.6,4.1,6.1,5.1
					c5.4,2.1,11.5-0.6,13.6-5.9C801.6,361.3,798.9,355.2,793.5,353.1z"/>
				<path class="st14" d="M792.4,357.6c-0.2,0-0.4,0-0.6-0.1c-1-0.4-2.2-0.5-3.3-0.3c-0.9,0.2-1.7-0.4-1.9-1.2
					c-0.2-0.9,0.4-1.7,1.2-1.9c1.7-0.4,3.5-0.2,5.1,0.4c0.8,0.3,1.2,1.2,0.9,2.1C793.7,357.2,793.1,357.6,792.4,357.6z"/>
				<path class="st14" d="M782.4,364.9c-0.8,0-1.5-0.6-1.6-1.5c-0.1-1.3,0.1-2.6,0.6-3.9c0.3-0.8,0.7-1.5,1.2-2.1
					c0.5-0.7,1.5-0.8,2.2-0.3c0.7,0.5,0.8,1.5,0.3,2.2c-0.3,0.4-0.6,0.9-0.8,1.4c-0.3,0.8-0.4,1.6-0.4,2.5c0.1,0.9-0.6,1.6-1.5,1.7
					C782.5,364.9,782.4,364.9,782.4,364.9z"/>
			</g>
		</g>
		<g>
			<path class="st12" d="M871,259.6c-4.4-4.1-11.3-3.8-15.4,0.7c-4.1,4.4-4.7,12.6,0.7,15.4c4.4,2.4,11.3,1.8,15.4-0.7
				C876.8,271.8,875.4,263.6,871,259.6z"/>
			<g>
				<path class="st13" d="M870.5,259.5c-4.3-3.9-13.2-3.9-15.5,1.5c-1.4,3.2-3.2,3.9-2.5,7c0.6,2.7,1.9,5.1,3.8,6.9
					c2.5,2.3,5.2,1.4,8.3,0.9c2.2-0.4,4.9,0.2,6.5-1.5C875,270,874.7,263.4,870.5,259.5z"/>
				<path class="st14" d="M868.4,263.4c-0.4,0-0.8-0.1-1.1-0.4c-0.8-0.8-1.8-1.3-2.9-1.4c-0.9-0.1-1.5-1-1.3-1.8
					c0.1-0.9,1-1.5,1.8-1.3c1.7,0.3,3.3,1.1,4.6,2.2c0.6,0.6,0.7,1.6,0.1,2.3C869.3,263.2,868.8,263.4,868.4,263.4z"/>
				<path class="st14" d="M856.4,266.6c-0.2,0-0.3,0-0.5-0.1c-0.8-0.3-1.3-1.2-1-2c0.4-1.3,1.1-2.4,2-3.4c0.6-0.6,1.2-1.1,1.9-1.5
					c0.7-0.5,1.7-0.2,2.2,0.5c0.5,0.7,0.2,1.7-0.5,2.2c-0.4,0.3-0.8,0.6-1.2,1c-0.6,0.6-1,1.4-1.3,2.2
					C857.7,266.1,857.1,266.6,856.4,266.6z"/>
			</g>
		</g>
		<g>
			<circle class="st12" cx="920.7" cy="348.5" r="10.9"/>
			<g>
				<path class="st13" d="M920.2,337.9c-5.8,0-12.9,3-11,8.5c1.2,3.3,0.9,8.1,3.5,9.9c2.2,1.6,4.8,2.5,7.5,2.5
					c5.8,0,10.5-4.7,10.5-10.5S926,337.9,920.2,337.9z"/>
				<path class="st14" d="M916.2,343.8c-0.5,0-1-0.3-1.3-0.7c-0.5-0.7-0.3-1.7,0.5-2.2c1.5-0.9,3.1-1.5,4.9-1.5
					c0.9,0,1.6,0.7,1.6,1.6c0,0.9-0.7,1.6-1.6,1.6c-1.1,0-2.2,0.3-3.1,0.9C916.8,343.7,916.5,343.8,916.2,343.8z"/>
				<path class="st14" d="M913.6,353.1c-0.6,0-1.2-0.3-1.4-0.9c-0.6-1.2-0.9-2.5-0.9-3.8c0-0.8,0.1-1.6,0.3-2.4
					c0.2-0.9,1.1-1.3,2-1.1c0.9,0.2,1.3,1.1,1.1,2c-0.1,0.5-0.2,1-0.2,1.5c0,0.9,0.2,1.7,0.5,2.5c0.4,0.8,0,1.8-0.8,2.1
					C914,353,913.8,353.1,913.6,353.1z"/>
			</g>
		</g>
		<g>
			
				<ellipse transform="matrix(0.8057 -0.5923 0.5923 0.8057 -20.7931 526.6644)" class="st12" cx="792.4" cy="295" rx="10.9" ry="10.9"/>
			<g>
				<path class="st13" d="M800.7,288.4c-3.4-4.7-13.2-6.6-16.5-1.9c-2,2.9-2.9,3.5-2.8,6.7c0,2.7,0.8,5.4,2.4,7.5
					c3.4,4.7,9.8,5.4,14.6,2.2C805.2,298.5,804.1,293,800.7,288.4z"/>
				<path class="st14" d="M798.2,291.8c-0.5,0-1-0.2-1.3-0.7c-0.7-0.9-1.6-1.6-2.6-2c-0.8-0.3-1.2-1.2-0.9-2.1
					c0.3-0.8,1.2-1.2,2.1-0.9c1.6,0.6,3,1.7,4.1,3.1c0.5,0.7,0.4,1.7-0.3,2.2C798.9,291.7,798.5,291.8,798.2,291.8z"/>
				<path class="st14" d="M785.8,292.7c-0.3,0-0.5-0.1-0.8-0.2c-0.8-0.4-1.1-1.4-0.6-2.2c0.6-1.2,1.5-2.2,2.6-2.9
					c0.7-0.5,1.4-0.9,2.1-1.2c0.8-0.3,1.7,0.1,2.1,0.9c0.3,0.8-0.1,1.7-0.9,2.1c-0.5,0.2-0.9,0.4-1.4,0.7c-0.7,0.5-1.2,1.1-1.7,1.9
					C786.9,292.4,786.4,292.7,785.8,292.7z"/>
			</g>
		</g>
		<g>
			
				<ellipse transform="matrix(0.8057 -0.5923 0.5923 0.8057 -29.1049 568.7125)" class="st12" cx="852.4" cy="328.7" rx="9.3" ry="9.3"/>
			<g>
				<path class="st13" d="M859.4,323.1c-2.9-4-11.2-5.6-14-1.6c-1.7,2.5-2.4,3-2.4,5.7c0,2.3,0.7,4.6,2.1,6.4
					c2.9,4,8.3,4.6,12.4,1.9C863.2,331.7,862.3,327,859.4,323.1z"/>
				<path class="st14" d="M857.3,326.2c-0.5,0-1-0.2-1.3-0.7c-0.5-0.7-1.3-1.3-2.1-1.6c-0.8-0.3-1.2-1.2-0.9-2.1
					c0.3-0.8,1.2-1.2,2.1-0.9c1.4,0.5,2.7,1.5,3.6,2.7c0.5,0.7,0.4,1.7-0.3,2.2C857.9,326.1,857.6,326.2,857.3,326.2z"/>
				<path class="st14" d="M846.8,327c-0.3,0-0.5-0.1-0.8-0.2c-0.8-0.4-1.1-1.4-0.6-2.2c0.6-1,1.3-1.9,2.3-2.6c0.6-0.4,1.2-0.8,1.9-1
					c0.8-0.3,1.7,0.1,2.1,0.9c0.3,0.8-0.1,1.7-0.9,2.1c-0.4,0.1-0.8,0.4-1.1,0.6c-0.6,0.4-1,0.9-1.3,1.5
					C847.9,326.7,847.3,327,846.8,327z"/>
			</g>
		</g>
		<g>
			
				<ellipse transform="matrix(0.8057 -0.5923 0.5923 0.8057 -62.7428 588.4916)" class="st12" cx="865.7" cy="389.9" rx="8.1" ry="8.1"/>
			<g>
				<path class="st13" d="M871.9,385c-2.5-3.5-9.8-4.9-12.2-1.4c-1.5,2.2-2.1,2.6-2.1,5c0,2,0.6,4,1.8,5.6c2.5,3.5,7.3,4,10.9,1.7
					C875.2,392.5,874.4,388.4,871.9,385z"/>
				<path class="st14" d="M870,387.9c-0.5,0-1-0.2-1.3-0.7c-0.4-0.6-1.1-1.1-1.8-1.3c-0.8-0.3-1.2-1.2-0.9-2.1
					c0.3-0.8,1.2-1.2,2.1-0.9c1.3,0.5,2.4,1.3,3.2,2.4c0.5,0.7,0.4,1.7-0.3,2.2C870.7,387.8,870.3,387.9,870,387.9z"/>
				<path class="st14" d="M860.8,388.6c-0.3,0-0.5-0.1-0.8-0.2c-0.8-0.4-1.1-1.4-0.6-2.2c0.5-0.9,1.2-1.7,2-2.3
					c0.5-0.4,1.1-0.7,1.7-0.9c0.8-0.3,1.7,0.1,2.1,0.9c0.3,0.8-0.1,1.7-0.9,2.1c-0.3,0.1-0.6,0.3-0.9,0.5c-0.5,0.3-0.8,0.8-1.1,1.3
					C861.9,388.2,861.3,388.6,860.8,388.6z"/>
			</g>
		</g>
		<g>
			<path class="st12" d="M901.8,393.9c-2.1-0.5-3.8-1-5.3-7.1c-0.2-0.7-0.9-1.1-1.6-1c-0.7,0.2-1.1,0.9-1,1.6c1.8,7,4.1,8.2,7.2,9
				c2,0.5,3.7,1,5.5,5.4c0.2,0.5,0.7,0.8,1.2,0.8c0.2,0,0.3,0,0.5-0.1c0.7-0.3,1-1,0.7-1.7C906.7,395.2,904,394.5,901.8,393.9z"/>
			<path class="st12" d="M939.9,341c-0.1,0.7,0.5,1.4,1.2,1.4c0,0,0.1,0,0.1,0c0.7,0,1.2-0.5,1.3-1.2c0.6-6.7-1-9.1-3-12
				c-1.6-2.4-3.5-5-4.6-11.2c-0.1-0.7-0.8-1.2-1.5-1c-0.7,0.1-1.2,0.8-1,1.5c1.3,6.7,3.4,9.7,5,12.2
				C939.2,333.5,940.5,335.3,939.9,341z"/>
			<path class="st12" d="M905.9,259.6c-0.1,0.7,0.3,1.4,1,1.5c0.1,0,0.2,0,0.2,0c0.6,0,1.2-0.4,1.3-1.1c0.7-3.8,0.5-6.2-0.1-8.2
				c-1.3-0.9-2.7-1.8-4-2.5C905.9,252.1,906.9,254.1,905.9,259.6z"/>
			<path class="st12" d="M787.4,394.8c1.6,2.9,2.7,4.8,1.6,10.4c-0.1,0.7,0.3,1.4,1,1.5c0.1,0,0.2,0,0.2,0c0.6,0,1.2-0.4,1.3-1.1
				c1.2-6.6-0.2-9.2-1.9-12.2c-1.4-2.5-3-5.3-3.6-11.5c-0.1-0.7-0.7-1.2-1.4-1.2c-0.7,0.1-1.2,0.7-1.2,1.4
				C784.1,389,785.9,392.2,787.4,394.8z"/>
			<path class="st12" d="M814.7,240.3c-0.6,1.8-0.9,3.4-1.2,4.8c-0.6,3.2-1,5.4-5.5,9c-0.6,0.5-0.6,1.3-0.2,1.8
				c0.3,0.3,0.6,0.5,1,0.5c0.3,0,0.6-0.1,0.8-0.3c5.2-4.3,5.7-7.2,6.4-10.6c0.3-1.8,0.7-3.9,1.9-6.5
				C816.9,239.5,815.8,239.9,814.7,240.3z"/>
			<path class="st12" d="M760.6,334.8c-0.6-0.4-1.4-0.3-1.8,0.3c-3.4,5-4.3,8.4-4.9,11.2c0.4,1.7,0.9,3.4,1.5,5.1
				c0.4-1.2,0.7-2.4,0.9-3.6c0.5-2.8,1.1-6,4.7-11.2C761.4,336,761.2,335.2,760.6,334.8z"/>
			<path class="st12" d="M847.8,425.5c0.2,0,0.3,0,0.5-0.1c0.7-0.3,1-1,0.8-1.7c-2-5.3-4.4-6.9-6.8-8.4c-2.7-1.7-5.2-3.3-7.4-11.2
				c-0.2-0.7-0.9-1.1-1.6-0.9c-0.7,0.2-1.1,0.9-0.9,1.6c2.5,8.9,5.7,10.9,8.6,12.7c2.2,1.4,4.1,2.6,5.8,7.1
				C846.7,425.2,847.2,425.5,847.8,425.5z"/>
		</g>
		<path class="st12" d="M855.5,375.5c-3.9,0-8.2-1.5-10.5-5.2c-0.4-0.7-0.2-1.6,0.5-2c0.7-0.4,1.6-0.2,2,0.5c2,3.3,6.6,4.2,9.9,3.7
			c4-0.7,7.7-3,11-5.3c0.3-0.2,0.6-0.4,0.9-0.6c3.3-2.3,6.7-4.6,10.7-5.8c8-2.5,17.3,0.4,22.5,7.1c0.5,0.6,0.4,1.5-0.2,2
			c-0.6,0.5-1.5,0.4-2-0.2c-4.4-5.6-12.5-8.2-19.3-6.1c-3.6,1.1-6.8,3.3-9.9,5.5c-0.3,0.2-0.6,0.4-0.9,0.6c-3.6,2.5-7.6,5-12.2,5.7
			C857.1,375.4,856.3,375.5,855.5,375.5z"/>
		<path class="st12" d="M798.1,341.5c-1.3,0-2.6-0.1-3.9-0.4c-0.8-0.2-1.3-0.9-1.1-1.7c0.2-0.8,0.9-1.3,1.7-1.1
			c7.2,1.6,15.3-2.2,18.7-8.8c1.4-2.8,2.1-5.8,2.8-9.1c0.7-3.2,1.4-6.6,2.9-9.6c4.1-8.1,13.8-12.8,22.6-10.8
			c0.8,0.2,1.3,0.9,1.1,1.7c-0.2,0.8-1,1.3-1.7,1.1c-7.5-1.7-16,2.4-19.4,9.3c-1.4,2.7-2,5.7-2.7,8.9c-0.7,3.3-1.4,6.7-3,9.8
			C812.7,337.3,805.4,341.5,798.1,341.5z"/>
		<path class="st12" d="M823,348.4c0,0-0.1,0-0.1,0c-0.8-0.1-1.4-0.8-1.3-1.6c0.6-8.3,0.4-14.1-0.8-17.3c-0.8-2.2-1.7-2.6-2.8-3
			c-0.9-0.3-2.4-0.9-2.5-3c0-0.8,0.6-1.5,1.4-1.5c0.8,0,1.5,0.6,1.5,1.4c0,0.1,0,0.1,0,0.1c0.1,0.1,0.4,0.2,0.6,0.2
			c3.5,1.3,6.8,4.2,5.4,23.2C824.4,347.8,823.8,348.4,823,348.4z"/>
		<path class="st12" d="M904.6,307c-0.1,0-0.2,0-0.3,0c-6.3-1.2-11.7-6.1-13.7-12.2c-0.3-1.1-0.6-2.2-0.8-3.3
			c-0.2-0.9-0.4-1.8-0.6-2.6c-0.6-2-1.4-3.4-2.5-4.3c-1-0.8-2.7-1.1-3.8-0.2c-0.6,0.5-1.5,0.4-2-0.2c-0.5-0.6-0.4-1.5,0.2-2
			c2.2-1.9,5.4-1.3,7.4,0.1c1.6,1.2,2.8,3.2,3.6,5.8c0.3,0.9,0.5,1.9,0.7,2.8c0.2,1.1,0.4,2,0.7,3c1.6,5.1,6.2,9.2,11.4,10.2
			c0.8,0.2,1.3,0.9,1.2,1.7C905.9,306.6,905.3,307,904.6,307z"/>
	</g>
	<g>
		<path class="st15" d="M1252.5,315c-1-5.4-3.8-10-7.8-13.2c1.2-5.2,0.5-10.7-2.4-15.7c-2.7-4.8-7-8.1-11.8-9.7
			c-0.7-5.2-3.2-10.3-7.6-13.9c-4.2-3.5-9.4-5.2-14.4-5.1c-2.4-4.7-6.5-8.5-11.9-10.5c-5.2-1.9-10.6-1.7-15.3,0.2
			c-3.9-3.6-9.1-5.8-14.8-5.8c-5.5,0-10.5,2-14.3,5.4c-4.9-2-10.5-2.3-15.9-0.4c-5.2,1.9-9.2,5.5-11.6,10c-5.3-0.2-10.7,1.4-15,5.1
			c-4.2,3.5-6.7,8.3-7.5,13.3c-5,1.6-9.5,5-12.4,9.9c-2.7,4.8-3.5,10.1-2.5,15.1c-4.2,3.2-7.3,7.9-8.2,13.5
			c-1,5.4,0.2,10.7,2.8,15.1c-2.9,4.4-4.1,9.9-3.1,15.5c1,5.4,3.8,10,7.8,13.2c-1.2,5.2-0.5,10.7,2.4,15.7c2.7,4.8,7,8.1,11.8,9.7
			c0.7,5.2,3.2,10.3,7.6,13.9c4.2,3.5,9.4,5.2,14.4,5.1c2.4,4.7,6.5,8.5,11.9,10.5c5.2,1.9,10.6,1.7,15.3-0.2
			c3.9,3.6,9.1,5.8,14.8,5.8c5.5,0,10.5-2,14.3-5.4c4.9,2,10.5,2.3,15.9,0.4c5.2-1.9,9.2-5.5,11.6-10c5.3,0.2,10.7-1.4,15-5.1
			c4.2-3.5,6.7-8.3,7.5-13.3c5-1.6,9.5-5,12.4-9.9c2.7-4.8,3.5-10.1,2.5-15.1c4.2-3.2,7.3-7.9,8.2-13.5c1-5.4-0.2-10.7-2.8-15.1
			C1252.3,326.1,1253.5,320.7,1252.5,315z"/>
		<circle class="st16" cx="1169.7" cy="333.6" r="73.2"/>
		<circle class="st17" cx="1165.6" cy="329.5" r="73.2"/>
		<path class="st18" d="M1219,292.4c-0.5,0-1-0.2-1.3-0.7c-3.4-4.7-7.4-8.9-11.9-12.5c-0.7-0.6-0.8-1.6-0.3-2.3
			c0.6-0.7,1.6-0.8,2.3-0.3c4.7,3.8,9,8.2,12.5,13.1c0.5,0.7,0.4,1.8-0.4,2.3C1219.7,292.3,1219.4,292.4,1219,292.4z"/>
		<path class="st18" d="M1231.5,327.2c-0.9,0-1.6-0.7-1.6-1.5c-0.5-8.6-2.7-16.8-6.4-24.5c-0.4-0.8-0.1-1.8,0.7-2.2
			c0.8-0.4,1.8-0.1,2.2,0.7c4,8.1,6.2,16.7,6.7,25.7C1233.2,326.4,1232.5,327.2,1231.5,327.2
			C1231.5,327.2,1231.5,327.2,1231.5,327.2z"/>
		<path class="st19" d="M1226,288c6.1,10.7,9.7,23.1,9.7,36.4c0,40.4-32.8,73.2-73.2,73.2c-25,0-47.1-12.6-60.4-31.7
			c12.6,22,36.4,36.9,63.6,36.9c40.4,0,73.2-32.8,73.2-73.2C1238.8,314.1,1234.1,299.8,1226,288z"/>
		<path class="st19" d="M1218.4,347.9c1-5.4-0.2-10.7-2.8-15.1c2.9-4.4,4.1-9.9,3.1-15.5c-1-5.4-3.8-10-7.8-13.2
			c1.2-5.2,0.5-10.7-2.4-15.7c-2.7-4.8-7-8.1-11.8-9.7c-0.7-5.2-3.2-10.3-7.6-13.9c-4.2-3.5-9.4-5.2-14.4-5.1
			c-0.6-1.1-1.2-2.1-1.9-3.1c-2.3-0.2-4.7-0.3-7.1-0.3c-40.4,0-73.2,32.8-73.2,73.2s32.8,73.2,73.2,73.2c8,0,15.7-1.3,23-3.7
			c3.7-3.4,6-7.9,6.7-12.6c5-1.6,9.5-5,12.4-9.9c2.7-4.8,3.5-10.1,2.5-15.1C1214.4,358.2,1217.4,353.5,1218.4,347.9z"/>
		<path class="st20" d="M1216.1,315c-1-5.4-3.8-10-7.8-13.2c1.2-5.2,0.5-10.7-2.4-15.7c-2.7-4.8-7-8.1-11.8-9.7
			c-0.7-5.2-3.2-10.3-7.6-13.9c-4.2-3.5-9.4-5.2-14.4-5.1c-2.4-4.7-6.5-8.5-11.9-10.5c-5.2-1.9-10.6-1.7-15.3,0.2
			c-3.9-3.6-9.1-5.8-14.8-5.8c-5.5,0-10.5,2-14.3,5.4c-4.9-2-10.5-2.3-15.9-0.4c-5.2,1.9-9.2,5.5-11.6,10c-5.3-0.2-10.7,1.4-15,5.1
			c-4.2,3.5-6.7,8.3-7.5,13.3c-5,1.6-9.5,5-12.4,9.9c-2.7,4.8-3.5,10.1-2.5,15.1c-4.2,3.2-7.3,7.9-8.2,13.5
			c-1,5.4,0.2,10.7,2.8,15.1c-2.9,4.4-4.1,9.9-3.1,15.5c1,5.4,3.8,10,7.8,13.2c-1.2,5.2-0.5,10.7,2.4,15.7c2.7,4.8,7,8.1,11.8,9.7
			c0.7,5.2,3.2,10.3,7.6,13.9c4.2,3.5,9.4,5.2,14.4,5.1c2.4,4.7,6.5,8.5,11.9,10.5c5.2,1.9,10.6,1.7,15.3-0.2
			c3.9,3.6,9.1,5.8,14.8,5.8c5.5,0,10.5-2,14.3-5.4c4.9,2,10.5,2.3,15.9,0.4c5.2-1.9,9.2-5.5,11.6-10c5.3,0.2,10.7-1.4,15-5.1
			c4.2-3.5,6.7-8.3,7.5-13.3c5-1.6,9.5-5,12.4-9.9c2.7-4.8,3.5-10.1,2.5-15.1c4.2-3.2,7.3-7.9,8.2-13.5c1-5.4-0.2-10.7-2.8-15.1
			C1215.8,326.1,1217.1,320.7,1216.1,315z"/>
		<g>
			<circle class="st21" cx="1130.1" cy="329.5" r="5.1"/>
			<circle class="st22" cx="1129.1" cy="329.5" r="5.1"/>
		</g>
		<g>
			<circle class="st21" cx="1130.1" cy="284.2" r="5.1"/>
			<circle class="st22" cx="1129.1" cy="284.2" r="5.1"/>
		</g>
		<g>
			
				<ellipse transform="matrix(0.309 -0.9511 0.9511 0.309 451.4449 1250.6558)" class="st21" cx="1086.4" cy="314.6" rx="5.1" ry="5.1"/>
			
				<ellipse transform="matrix(0.309 -0.9511 0.9511 0.309 450.3342 1251.0167)" class="st22" cx="1086.1" cy="315.6" rx="5.1" ry="5.1"/>
		</g>
		<g>
			
				<ellipse transform="matrix(0.5878 -0.809 0.809 0.5878 158.4361 1042.0991)" class="st21" cx="1101.8" cy="365.6" rx="5.1" ry="5.1"/>
			
				<ellipse transform="matrix(0.5878 -0.809 0.809 0.5878 158.295 1042.99)" class="st22" cx="1102.6" cy="366.2" rx="5.1" ry="5.1"/>
		</g>
		<g>
			<ellipse transform="matrix(0.809 -0.5878 0.5878 0.809 5.0839 748.9364)" class="st21" cx="1155" cy="366.6" rx="5.1" ry="5.1"/>
			
				<ellipse transform="matrix(0.809 -0.5878 0.5878 0.809 5.5806 749.2973)" class="st22" cx="1155.8" cy="366.1" rx="5.1" ry="5.1"/>
		</g>
		<g>
			
				<ellipse transform="matrix(0.9511 -0.309 0.309 0.9511 -40.3803 377.8051)" class="st21" cx="1172.5" cy="316.4" rx="5.1" ry="5.1"/>
			
				<ellipse transform="matrix(0.9511 -0.309 0.309 0.9511 -40.1033 377.664)" class="st22" cx="1172.2" cy="315.4" rx="5.1" ry="5.1"/>
		</g>
	</g>
	<g>
		<path class="st20" d="M352.2,587.9c0-3.5-1.9-6.5-4.7-8.2c2.8-1.7,4.7-4.7,4.7-8.2c0-5.2-4.3-9.5-9.5-9.5c-3.7,0-6.9,2.1-8.5,5.2
			c-1.6-3.1-4.8-5.2-8.5-5.2c-3.7,0-6.9,2.1-8.5,5.2c-1.6-3.1-4.8-5.2-8.5-5.2c-3.7,0-6.9,2.1-8.5,5.2c-1.6-3.1-4.8-5.2-8.5-5.2
			c-3.7,0-6.9,2.1-8.5,5.2c-1.6-3.1-4.8-5.2-8.5-5.2c-3.7,0-6.9,2.1-8.5,5.2c-1.6-3.1-4.8-5.2-8.5-5.2s-6.9,2.1-8.5,5.2
			c-1.6-3.1-4.8-5.2-8.5-5.2s-6.9,2.1-8.5,5.2c-1.6-3.1-4.8-5.2-8.5-5.2c-3.7,0-6.9,2.1-8.5,5.2c-1.6-3.1-4.8-5.2-8.5-5.2
			c-3.7,0-6.9,2.1-8.5,5.2c-1.6-3.1-4.8-5.2-8.5-5.2s-6.9,2.1-8.5,5.2c-1.6-3.1-4.8-5.2-8.5-5.2c-3.7,0-6.9,2.1-8.5,5.2
			c-1.6-3.1-4.8-5.2-8.5-5.2c-5.2,0-9.5,4.3-9.5,9.5c0,3.5,1.9,6.5,4.7,8.2c-2.8,1.7-4.7,4.7-4.7,8.2c0,3.5,1.9,6.5,4.7,8.2
			c-2.8,1.7-4.7,4.7-4.7,8.2s1.9,6.5,4.7,8.2c-2.8,1.7-4.7,4.7-4.7,8.2c0,3.5,1.9,6.5,4.7,8.2c-2.8,1.7-4.7,4.7-4.7,8.2
			c0,3.5,1.9,6.5,4.7,8.2c-2.8,1.7-4.7,4.7-4.7,8.2s1.9,6.5,4.7,8.2c-2.8,1.7-4.7,4.7-4.7,8.2c0,3.5,1.9,6.5,4.7,8.2
			c-2.8,1.7-4.7,4.7-4.7,8.2c0,5.2,4.3,9.5,9.5,9.5c3.7,0,6.9-2.1,8.5-5.2c1.6,3.1,4.8,5.2,8.5,5.2c3.7,0,6.9-2.1,8.5-5.2
			c1.6,3.1,4.8,5.2,8.5,5.2s6.9-2.1,8.5-5.2c1.6,3.1,4.8,5.2,8.5,5.2c3.7,0,6.9-2.1,8.5-5.2c1.6,3.1,4.8,5.2,8.5,5.2
			c3.7,0,6.9-2.1,8.5-5.2c1.6,3.1,4.8,5.2,8.5,5.2s6.9-2.1,8.5-5.2c1.6,3.1,4.8,5.2,8.5,5.2s6.9-2.1,8.5-5.2
			c1.6,3.1,4.8,5.2,8.5,5.2c3.7,0,6.9-2.1,8.5-5.2c1.6,3.1,4.8,5.2,8.5,5.2c3.7,0,6.9-2.1,8.5-5.2c1.6,3.1,4.8,5.2,8.5,5.2
			c3.7,0,6.9-2.1,8.5-5.2c1.6,3.1,4.8,5.2,8.5,5.2c3.7,0,6.9-2.1,8.5-5.2c1.6,3.1,4.8,5.2,8.5,5.2c5.2,0,9.5-4.3,9.5-9.5
			c0-3.5-1.9-6.5-4.7-8.2c2.8-1.7,4.7-4.7,4.7-8.2c0-3.5-1.9-6.5-4.7-8.2c2.8-1.7,4.7-4.7,4.7-8.2s-1.9-6.5-4.7-8.2
			c2.8-1.7,4.7-4.7,4.7-8.2c0-3.5-1.9-6.5-4.7-8.2c2.8-1.7,4.7-4.7,4.7-8.2c0-3.5-1.9-6.5-4.7-8.2c2.8-1.7,4.7-4.7,4.7-8.2
			s-1.9-6.5-4.7-8.2C350.4,594.5,352.2,591.4,352.2,587.9z"/>
		<path class="st23" d="M352.2,587.9c0-3.5-1.9-6.5-4.7-8.2c2.8-1.7,4.7-4.7,4.7-8.2c0-5.2-4.3-9.5-9.5-9.5c-0.8,0-1.5,0.1-2.2,0.3
			c4.2,1,7.3,4.8,7.3,9.2c0,3.5-1.9,6.5-4.7,8.2c2.8,1.7,4.7,4.7,4.7,8.2c0,3.5-1.9,6.5-4.7,8.2c2.8,1.7,4.7,4.7,4.7,8.2
			s-1.9,6.5-4.7,8.2c2.8,1.7,4.7,4.7,4.7,8.2c0,3.5-1.9,6.5-4.7,8.2c2.8,1.7,4.7,4.7,4.7,8.2c0,3.5-1.9,6.5-4.7,8.2
			c2.8,1.7,4.7,4.7,4.7,8.2s-1.9,6.5-4.7,8.2c2.8,1.7,4.7,4.7,4.7,8.2c0,3.5-1.9,6.5-4.7,8.2c2.8,1.7,4.7,4.7,4.7,8.2
			c0,4.5-3.1,8.2-7.3,9.2c0.7,0.2,1.4,0.3,2.2,0.3c5.2,0,9.5-4.3,9.5-9.5c0-3.5-1.9-6.5-4.7-8.2c2.8-1.7,4.7-4.7,4.7-8.2
			c0-3.5-1.9-6.5-4.7-8.2c2.8-1.7,4.7-4.7,4.7-8.2s-1.9-6.5-4.7-8.2c2.8-1.7,4.7-4.7,4.7-8.2c0-3.5-1.9-6.5-4.7-8.2
			c2.8-1.7,4.7-4.7,4.7-8.2c0-3.5-1.9-6.5-4.7-8.2c2.8-1.7,4.7-4.7,4.7-8.2s-1.9-6.5-4.7-8.2C350.4,594.5,352.2,591.4,352.2,587.9z"
			/>
		<g>
			<g>
				<circle class="st21" cx="192.6" cy="601.6" r="4"/>
				<circle class="st22" cx="191.9" cy="600.9" r="4"/>
			</g>
			<g>
				<circle class="st21" cx="230.6" cy="601.6" r="4"/>
				<circle class="st22" cx="229.9" cy="600.9" r="4"/>
			</g>
			<g>
				<circle class="st21" cx="268.7" cy="601.6" r="4"/>
				<circle class="st22" cx="268" cy="600.9" r="4"/>
			</g>
			<g>
				<circle class="st21" cx="306.7" cy="601.6" r="4"/>
				<circle class="st22" cx="306" cy="600.9" r="4"/>
			</g>
			<g>
				<circle class="st21" cx="192.6" cy="629.2" r="4"/>
				<circle class="st22" cx="191.9" cy="628.5" r="4"/>
			</g>
			<g>
				<circle class="st21" cx="230.6" cy="629.2" r="4"/>
				<circle class="st22" cx="229.9" cy="628.5" r="4"/>
			</g>
			<g>
				<circle class="st21" cx="268.7" cy="629.2" r="4"/>
				<circle class="st22" cx="268" cy="628.5" r="4"/>
			</g>
			<g>
				<circle class="st21" cx="306.7" cy="629.2" r="4"/>
				<circle class="st22" cx="306" cy="628.5" r="4"/>
			</g>
			<g>
				<circle class="st21" cx="192.6" cy="656.8" r="4"/>
				<circle class="st22" cx="191.9" cy="656.1" r="4"/>
			</g>
			<g>
				<circle class="st21" cx="230.6" cy="656.8" r="4"/>
				<circle class="st22" cx="229.9" cy="656.1" r="4"/>
			</g>
			<g>
				<circle class="st21" cx="268.7" cy="656.8" r="4"/>
				<circle class="st22" cx="268" cy="656.1" r="4"/>
			</g>
			<g>
				<circle class="st21" cx="306.7" cy="656.8" r="4"/>
				<circle class="st22" cx="306" cy="656.1" r="4"/>
			</g>
		</g>
	</g>
	<g>
		<path class="st24" d="M609.2,695.1c-26.7-17.3-17.8-65.6,2.3-66.6c20.2-1.1,29.2-13.3,21.8-31.3c-7.4-18.1-29.5-10.9-41.4-6.6
			c-6.9,2.5-9.4-0.1-9.4-4.1c7.4-8.1,11.9-18.9,11.9-30.8c0-25.3-20.5-45.8-45.8-45.8c-25.3,0-45.8,20.5-45.8,45.8
			c0,11.9,4.5,22.7,11.9,30.8c0,4-2.4,6.6-9.4,4.1c-11.9-4.2-34-11.4-41.4,6.6s1.6,30.3,21.8,31.3c20.2,1.1,29.1,49.4,2.3,66.6
			c-26.7,17.3-33.4,21.8-21.4,36.9c11.9,15.1,40.2,23.9,53.6,5.6c23.1-31.6,11.4-50.2,28.4-50.2c17,0,5.3,18.6,28.4,50.2
			c13.4,18.4,41.7,9.6,53.6-5.6S636,712.4,609.2,695.1z"/>
		<g>
			<path class="st25" d="M630.3,594.2c7.4,18.1-1.6,30.3-21.8,31.3c-19.2,1-28.2,45-5.8,64.1c-18.5-20.3-9.5-60.2,8.8-61.1
				c20.2-1.1,29.2-13.3,21.8-31.3c-1.5-3.6-3.5-6.2-6-8C628.5,590.6,629.5,592.2,630.3,594.2z"/>
			<path class="st25" d="M591.4,552.7c0,11.9-4.5,22.7-11.9,30.8c0,2.5,0.9,4.4,3.3,5c-0.2-0.6-0.2-1.3-0.2-2
				c7.4-8.1,11.9-18.9,11.9-30.8c0-13.7-6-26-15.6-34.4C586.6,529.4,591.4,540.5,591.4,552.7z"/>
			<path class="st25" d="M545.6,684.5c-17,0-5.3,18.6-28.4,50.2c-11.8,16.2-35.2,11.3-48.7-0.5c12.8,13.8,39,20.9,51.8,3.4
				c23.1-31.6,11.4-50.2,28.4-50.2c2.5,0,4.3,0.4,5.8,1.2C552.8,685.9,550.3,684.5,545.6,684.5z"/>
			<path class="st25" d="M629.8,709.4c5.4,6,4.6,11.2-2.2,19.7c-10.7,13.6-34.6,22.1-49.1,10.3c13.9,15.9,40.6,7.2,52.1-7.4
				C638.5,722.1,638.3,716.7,629.8,709.4z"/>
			<path class="st25" d="M482.7,625.6c-7.5-0.4-13.4-2.3-17.5-5.5c4,4.9,11,7.9,20.6,8.4c2.8,0.1,5.4,1.2,7.7,3
				C490.5,628,486.9,625.8,482.7,625.6z"/>
		</g>
		<g>
			<g>
				<circle class="st26" cx="534.6" cy="552.6" r="5.3"/>
				<circle class="st27" cx="533" cy="550.6" r="2"/>
			</g>
			<g>
				<circle class="st26" cx="562.7" cy="552.6" r="5.3"/>
				<circle class="st27" cx="561.1" cy="550.6" r="2"/>
			</g>
		</g>
		<path class="st26" d="M548.7,581.4c-8.5,0-15.4-6.9-15.4-15.4c0-1.3,1.1-2.4,2.4-2.4c1.3,0,2.4,1.1,2.4,2.4
			c0,5.9,4.8,10.6,10.6,10.6c5.9,0,10.6-4.8,10.6-10.6c0-1.3,1.1-2.4,2.4-2.4c1.3,0,2.4,1.1,2.4,2.4
			C564.1,574.5,557.2,581.4,548.7,581.4z"/>
		<circle class="st26" cx="548.7" cy="619.5" r="5.3"/>
		<circle class="st26" cx="548.7" cy="640.7" r="5.3"/>
		<circle class="st26" cx="548.7" cy="661.9" r="5.3"/>
		<g>
			<path class="st28" d="M548.7,587.2c-2.9,0-5.2,2.3-5.2,5.2v7.1c0,2.9,2.3,5.2,5.2,5.2s5.2-2.3,5.2-5.2v-7.1
				C553.9,589.6,551.5,587.2,548.7,587.2z"/>
			<g>
				<path class="st28" d="M568,582.9l-16.3,7.9v10.4l16.3,7.9c2.8,1.4,6.1-0.7,6.1-3.8v-18.6C574,583.6,570.8,581.5,568,582.9z"/>
				<path class="st28" d="M529.4,582.9l16.3,7.9v10.4l-16.3,7.9c-2.8,1.4-6.1-0.7-6.1-3.8v-18.6
					C523.3,583.6,526.6,581.5,529.4,582.9z"/>
			</g>
		</g>
		<g>
			<path class="st17" d="M610.6,585.7c-1.8,0.2-3.6,0.5-5.4,0.9c-1.2,1.4-2.5,3.2-1.8,5.7c0.8,2.8,3.5,3.5,5.4,4
				c1.7,0.4,2.6,0.7,2.8,1.5c0.2,0.7-0.3,1.4-1.6,2.7c-1.4,1.5-3.2,3.5-2.4,6.3c0.8,2.8,3.5,3.5,5.4,4c1.7,0.4,2.6,0.7,2.8,1.5
				s-0.3,1.4-1.6,2.7c-1.4,1.5-3.2,3.5-2.4,6.3c0.8,2.8,3.5,3.5,5.4,4c1.7,0.4,2.6,0.7,2.8,1.5c0,0.2,0.1,0.3,0,0.5
				c1.3-0.3,2.5-0.8,3.6-1.2c0-0.1,0-0.2-0.1-0.3c-0.8-2.8-3.5-3.5-5.4-4c-1.7-0.4-2.6-0.7-2.8-1.5c-0.2-0.7,0.3-1.4,1.6-2.7
				c1.4-1.5,3.2-3.5,2.4-6.3c-0.8-2.8-3.5-3.5-5.4-4c-1.7-0.4-2.6-0.7-2.8-1.5c-0.2-0.7,0.3-1.4,1.6-2.7c1.4-1.5,3.2-3.5,2.4-6.3
				c-0.8-2.8-3.5-3.5-5.4-4c-1.7-0.4-2.6-0.7-2.8-1.5c-0.2-0.7,0.3-1.4,1.6-2.7C609.3,587.7,610.1,586.8,610.6,585.7z"/>
			<path class="st17" d="M621.6,703.3c-0.4,0.1-0.8,0.3-1.3,0.6c-2.4,1.7-2.2,4.4-2,6.4c0.1,1.8,0.2,2.6-0.4,3
				c-0.6,0.4-1.4,0.1-3-0.7c-1.8-0.9-4.3-2-6.7-0.4c-2.4,1.7-2.2,4.4-2,6.4c0.1,1.8,0.2,2.6-0.4,3c-0.6,0.4-1.4,0.1-3-0.7
				c-1.8-0.9-4.3-2-6.7-0.4c-2.4,1.7-2.2,4.4-2,6.4c0.1,1.8,0.2,2.6-0.4,3c-0.6,0.4-1.4,0.1-3-0.7c-1.8-0.9-4.3-2-6.7-0.4
				c-2.4,1.7-2.2,4.4-2,6.4c0.1,1.8,0.2,2.6-0.4,3c-0.6,0.4-1.4,0.1-3-0.7c-0.7-0.3-1.5-0.7-2.4-1c0.2,0.3,0.4,0.6,0.6,0.9
				c1.3,1.8,2.8,3.3,4.3,4.6c0.8,0,1.6-0.3,2.5-0.8c2.4-1.7,2.2-4.4,2-6.4c-0.1-1.8-0.2-2.6,0.4-3c0.6-0.4,1.4-0.1,3,0.7
				c1.8,0.9,4.3,2,6.7,0.4c2.4-1.7,2.2-4.4,2-6.4c-0.1-1.8-0.2-2.6,0.4-3c0.6-0.4,1.4-0.1,3,0.7c1.8,0.9,4.3,2,6.7,0.4
				c2.4-1.7,2.2-4.4,2-6.4c-0.1-1.8-0.2-2.6,0.4-3c0.6-0.4,1.4-0.1,3,0.7c1.8,0.9,4.3,2,6.7,0.4c2.4-1.7,2.2-4.4,2-6.4
				c-0.1-1.8-0.2-2.6,0.4-3c0.6-0.4,1.4-0.1,3,0.7c1,0.5,2.3,1.1,3.7,1.2C627.1,707.1,624.6,705.3,621.6,703.3z"/>
			<path class="st17" d="M517.6,739.5c0.2-2,0.4-4.7-2-6.4c-2.4-1.7-4.9-0.5-6.7,0.4c-1.6,0.8-2.4,1.1-3,0.7c-0.6-0.4-0.6-1.3-0.4-3
				c0.2-2,0.4-4.7-2-6.4c-2.4-1.7-4.9-0.5-6.7,0.4c-1.6,0.8-2.4,1.1-3,0.7c-0.6-0.4-0.6-1.3-0.4-3c0.2-2,0.4-4.7-2-6.4
				c-2.4-1.7-4.9-0.5-6.7,0.4c-1.6,0.8-2.4,1.1-3,0.7c-0.6-0.4-0.6-1.3-0.4-3c0.2-2,0.4-4.7-2-6.4c-2.4-1.7-4.9-0.5-6.7,0.4
				c-1.6,0.8-2.4,1.1-3,0.7c-0.3-0.2-0.4-0.6-0.5-1.1c-1.1,0.9-2.2,1.8-3.1,2.6c0.3,0.6,0.8,1.1,1.4,1.6c2.4,1.7,4.9,0.5,6.7-0.4
				c1.6-0.8,2.4-1.1,3-0.7c0.6,0.4,0.6,1.3,0.4,3c-0.2,2-0.4,4.7,2,6.4c2.4,1.7,4.9,0.5,6.7-0.4c1.6-0.8,2.4-1.1,3-0.7
				c0.6,0.4,0.6,1.3,0.4,3c-0.2,2-0.4,4.7,2,6.4c2.4,1.7,4.9,0.5,6.7-0.4c1.6-0.8,2.4-1.1,3-0.7c0.6,0.4,0.6,1.3,0.4,3
				c-0.2,2-0.4,4.7,2,6.4c2.4,1.7,4.9,0.5,6.7-0.4c1.6-0.8,2.4-1.1,3-0.7c0.6,0.4,0.6,1.3,0.4,3c-0.1,1.3-0.2,2.9,0.3,4.3
				c1.1-0.8,2.2-1.7,3.3-2.7C517.5,740.4,517.5,740,517.6,739.5z"/>
			<path class="st17" d="M477.1,627.2c0-0.2,0-0.3,0-0.5c0.2-0.7,1.1-1,2.8-1.5c1.9-0.5,4.6-1.2,5.4-4c0.8-2.8-1-4.8-2.4-6.3
				c-1.2-1.3-1.8-2-1.6-2.7c0.2-0.7,1.1-1,2.8-1.5c1.9-0.5,4.6-1.2,5.4-4c0.8-2.8-1-4.8-2.4-6.3c-1.2-1.3-1.8-2-1.6-2.7
				c0.2-0.7,1.1-1,2.8-1.5c1.9-0.5,4.6-1.2,5.4-4c0.7-2.4-0.6-4.3-1.8-5.7c-1.8-0.4-3.6-0.7-5.4-0.9c0.5,1.1,1.4,2,2.1,2.7
				c1.2,1.3,1.8,2,1.6,2.7c-0.2,0.7-1.1,1-2.8,1.5c-1.9,0.5-4.6,1.2-5.4,4c-0.8,2.8,1,4.8,2.4,6.3c1.2,1.3,1.8,2,1.6,2.7
				c-0.2,0.7-1.1,1-2.8,1.5c-1.9,0.5-4.6,1.2-5.4,4c-0.8,2.8,1,4.8,2.4,6.3c1.2,1.3,1.8,2,1.6,2.7c-0.2,0.7-1.1,1-2.8,1.5
				c-1.9,0.5-4.6,1.2-5.4,4c0,0.1-0.1,0.2-0.1,0.3C474.6,626.4,475.8,626.8,477.1,627.2z"/>
		</g>
		<path class="st29" d="M536.9,521.5c-1.2,0-2.4-0.8-2.8-2.1c-0.5-1.5,0.4-3.2,1.9-3.7c4.1-1.3,8.3-1.9,12.6-1.9
			c1.6,0,2.9,1.3,2.9,2.9s-1.3,2.9-2.9,2.9c-3.7,0-7.4,0.6-10.9,1.6C537.5,521.5,537.2,521.5,536.9,521.5z"/>
		<path class="st29" d="M512.3,543.8c-0.4,0-0.8-0.1-1.1-0.2c-1.5-0.6-2.2-2.3-1.5-3.8c3.1-7.2,8-13.4,14.4-17.9
			c1.3-0.9,3.1-0.6,4.1,0.7c0.9,1.3,0.6,3.1-0.7,4.1c-5.5,3.9-9.8,9.3-12.4,15.5C514.5,543.1,513.5,543.8,512.3,543.8z"/>
	</g>
	<g>
		<path class="st20" d="M848,738.8c-7.3,0-14.1-2.8-19.2-8L746.9,649c-7.6-7.6-13.5-16.5-17.5-26.4c-3.9-9.6-5.8-19.7-5.8-30.1
			c0-21.2,8.2-41,23-55.7c14.9-14.9,34.7-23,55.8-23c16.6,0,32.4,5.1,45.6,14.5c13.2-9.4,29-14.5,45.6-14.5c21.1,0,40.9,8.2,55.8,23
			c14.8,14.7,23,34.5,23,55.7c0,10.4-1.9,20.5-5.8,30.1c-4,10-9.9,18.8-17.5,26.4l-81.8,81.8C862.1,735.9,855.3,738.8,848,738.8z"/>
		<path class="st30" d="M834.5,730.8L752.6,649c-7.6-7.6-13.5-16.5-17.5-26.4c-3.9-9.6-5.8-19.7-5.8-30.1c0-21.2,8.2-41,23-55.7
			c14.3-14.2,33-22.3,53-23c-1,0-1.9-0.1-2.9-0.1c-21.1,0-40.9,8.2-55.8,23c-14.8,14.7-23,34.5-23,55.7c0,10.4,1.9,20.5,5.8,30.1
			c4,10,9.9,18.8,17.5,26.4l81.8,81.8c5.1,5.1,12,8,19.2,8c1,0,1.9,0,2.8-0.1C844.7,738,838.9,735.3,834.5,730.8z"/>
		<path class="st23" d="M946.1,548.8c-25.2-25.1-66-25.1-91.1,0.1c-25.2-25.2-65.9-25.2-91.1-0.1c-25.2,25.1-24.8,66.5,0.3,91.7
			l81.8,81.8c5,5,13,5,17.9,0l81.8-81.8C970.9,615.3,971.3,573.9,946.1,548.8z"/>
		<path class="st31" d="M939.1,547c-25.2-25.1-66-25.1-91.1,0.1c-25.2-25.2-65.9-25.2-91.1-0.1c-25.2,25.1-24.8,66.5,0.3,91.7
			l81.8,81.8c5,5,13,5,17.9,0l81.8-81.8C964,613.6,964.3,572.1,939.1,547z"/>
		<path class="st32" d="M751.7,591.9c-0.3,0-0.5,0-0.8-0.1c-3.4-0.4-5.8-3.6-5.4-7c1.6-12.7,7.2-24.1,16.2-33c2.4-2.4,6.4-2.4,8.8,0
			c2.4,2.4,2.4,6.4,0,8.8c-7,7-11.4,15.9-12.6,25.8C757.5,589.6,754.8,591.9,751.7,591.9z"/>
		<path class="st32" d="M785.3,550.5c-2.6,0-5-1.6-5.9-4.2c-1.2-3.3,0.6-6.8,3.8-8c6.2-2.2,12.6-3.3,19.3-3.3c3.5,0,6.2,2.8,6.2,6.2
			s-2.8,6.2-6.2,6.2c-5.2,0-10.3,0.9-15.1,2.6C786.6,550.4,785.9,550.5,785.3,550.5z"/>
		<path class="st33" d="M939.1,547c-1-1-2-1.9-3-2.8c22.2,25.3,20.9,64.4-3.2,88.5l-81.8,81.8c-5,5-13,5-17.9,0l5.9,5.9
			c5,5,13,5,17.9,0l81.8-81.8C964,613.6,964.3,572.1,939.1,547z"/>
		<path class="st33" d="M821.5,681.7c-2.1,0-4.7-0.8-7.7-3.2c-2.3-1.8-5-4.6-8.2-8.5c-5.6-6.8-12.2-16.2-18.5-25.3
			c-5.4-7.7-10.9-15.7-15.7-21.8c-5.4-6.9-8.1-9.1-9.1-9.9c-2.4,0.3-4.8-0.9-6-3.1c-1.5-2.9-0.4-6.5,2.5-8c2.4-1.2,6.3-1.9,11.5,2.3
			c2.3,1.8,5,4.6,8.2,8.5c5.6,6.8,12.2,16.2,18.5,25.3c5.4,7.7,10.9,15.7,15.7,21.8c1.7,2.2,3.2,3.9,4.4,5.3
			c-0.4-1.8-1.1-3.9-1.9-6.6c-2.3-7.4-5.8-16.5-9.1-25.3c-3.9-10.4-8-21.2-10.4-29.6c-1.4-4.8-2.2-8.6-2.4-11.5
			c-0.4-6.6,2.3-9.5,4.6-10.8c2.4-1.2,6.3-1.9,11.5,2.3c2.3,1.8,5,4.6,8.2,8.5c5.6,6.8,12.2,16.2,18.5,25.3
			c5.4,7.7,10.9,15.7,15.7,21.8c1.7,2.2,3.2,3.9,4.4,5.3c-0.4-1.8-1.1-3.9-1.9-6.6c-2.3-7.4-5.8-16.5-9.1-25.3
			c-3.9-10.4-8-21.2-10.4-29.6c-1.4-4.8-2.2-8.6-2.4-11.5c-0.4-6.6,2.3-9.5,4.6-10.8c2.4-1.2,6.3-1.9,11.5,2.3
			c2.3,1.8,5,4.6,8.2,8.5c5.6,6.8,12.2,16.2,18.5,25.3c5.4,7.7,10.9,15.7,15.7,21.8c1.7,2.2,3.2,3.9,4.4,5.3
			c-0.4-1.8-1.1-3.9-1.9-6.6c-2.3-7.4-5.8-16.5-9.1-25.3c-3.9-10.4-8-21.2-10.4-29.6c-1.4-4.8-2.2-8.6-2.4-11.5
			c-0.4-6.6,2.3-9.5,4.6-10.8c2.4-1.2,6.3-1.9,11.5,2.3c2.3,1.8,5,4.6,8.2,8.5c5.6,6.8,12.2,16.2,18.5,25.3
			c5.4,7.7,10.9,15.7,15.7,21.8c5.4,6.9,8.1,9.1,9.1,9.9c2.4-0.3,4.8,0.9,6,3.1c1.5,2.9,0.4,6.5-2.5,8c-2.4,1.2-6.3,1.9-11.5-2.3
			c-2.3-1.8-5-4.6-8.2-8.5c-5.6-6.8-12.2-16.2-18.5-25.3c-5.4-7.7-10.9-15.7-15.7-21.8c-1.7-2.2-3.2-3.9-4.4-5.3
			c0.4,1.8,1.1,3.9,1.9,6.6c2.3,7.4,5.8,16.5,9.1,25.3c3.9,10.4,8,21.2,10.4,29.6c1.4,4.8,2.2,8.6,2.4,11.5
			c0.4,6.6-2.3,9.5-4.6,10.8s-6.3,1.9-11.5-2.3c-2.3-1.8-5-4.6-8.2-8.5c-5.6-6.8-12.2-16.2-18.5-25.3c-5.4-7.7-10.9-15.7-15.7-21.8
			c-1.7-2.2-3.2-3.9-4.4-5.3c0.4,1.8,1.1,3.9,1.9,6.6c2.3,7.4,5.8,16.5,9.1,25.3c3.9,10.4,8,21.2,10.4,29.6
			c1.4,4.8,2.2,8.6,2.4,11.5c0.4,6.6-2.3,9.5-4.6,10.8c-2.4,1.2-6.3,1.9-11.5-2.3c-2.3-1.8-5-4.6-8.2-8.5
			c-5.6-6.8-12.2-16.2-18.5-25.3c-5.4-7.7-10.9-15.7-15.7-21.8c-1.7-2.2-3.2-3.9-4.4-5.3c0.4,1.8,1,3.9,1.9,6.6
			c2.3,7.4,5.8,16.5,9.1,25.3c3.9,10.4,8,21.2,10.4,29.6c1.4,4.8,2.2,8.6,2.4,11.5c0.4,6.6-2.3,9.5-4.6,10.8
			C824.3,681.3,823,681.7,821.5,681.7z"/>
		<path class="st34" d="M818.9,680.9c-2.1,0-4.7-0.8-7.7-3.2c-2.3-1.8-5-4.6-8.2-8.5c-5.6-6.8-12.2-16.2-18.5-25.3
			c-5.4-7.7-10.9-15.7-15.7-21.8c-5.4-6.9-8.1-9.1-9.1-9.9c-2.4,0.3-4.8-0.9-6-3.1c-1.5-2.9-0.4-6.5,2.5-8c2.4-1.2,6.3-1.9,11.5,2.3
			c2.3,1.8,5,4.6,8.2,8.5c5.6,6.8,12.2,16.2,18.5,25.3c5.4,7.7,10.9,15.7,15.7,21.8c1.7,2.2,3.2,3.9,4.4,5.3
			c-0.4-1.8-1.1-3.9-1.9-6.6c-2.3-7.4-5.8-16.5-9.1-25.3c-3.9-10.4-8-21.2-10.4-29.6c-1.4-4.8-2.2-8.6-2.4-11.5
			c-0.4-6.6,2.3-9.5,4.6-10.8c2.4-1.2,6.3-1.9,11.5,2.3c2.3,1.8,5,4.6,8.2,8.5c5.6,6.8,12.2,16.2,18.5,25.3
			c5.4,7.7,10.9,15.7,15.7,21.8c1.7,2.2,3.2,3.9,4.4,5.3c-0.4-1.8-1.1-3.9-1.9-6.6c-2.3-7.4-5.8-16.5-9.1-25.3
			c-3.9-10.4-8-21.2-10.4-29.6c-1.4-4.8-2.2-8.6-2.4-11.5c-0.4-6.6,2.3-9.5,4.6-10.8c2.4-1.2,6.3-1.9,11.5,2.3
			c2.3,1.8,5,4.6,8.2,8.5c5.6,6.8,12.2,16.2,18.5,25.3c5.4,7.7,10.9,15.7,15.7,21.8c1.7,2.2,3.2,3.9,4.4,5.3
			c-0.4-1.8-1.1-3.9-1.9-6.6c-2.3-7.4-5.8-16.5-9.1-25.3c-3.9-10.4-8-21.2-10.4-29.6c-1.4-4.8-2.2-8.6-2.4-11.5
			c-0.4-6.6,2.3-9.5,4.6-10.8c2.4-1.2,6.3-1.9,11.5,2.3c2.3,1.8,5,4.6,8.2,8.5c5.6,6.8,12.2,16.2,18.5,25.3
			c5.4,7.7,10.9,15.7,15.7,21.8c5.4,6.9,8.1,9.1,9.1,9.9c2.4-0.3,4.8,0.9,6,3.1c1.5,2.9,0.4,6.5-2.5,8c-2.4,1.2-6.3,1.9-11.5-2.3
			c-2.3-1.8-5-4.6-8.2-8.5c-5.6-6.8-12.2-16.2-18.5-25.3c-5.4-7.7-10.9-15.7-15.7-21.8c-1.7-2.2-3.2-3.9-4.4-5.3
			c0.4,1.8,1.1,3.9,1.9,6.6c2.3,7.4,5.8,16.5,9.1,25.3c3.9,10.4,8,21.2,10.4,29.6c1.4,4.8,2.2,8.6,2.4,11.5
			c0.4,6.6-2.3,9.5-4.6,10.8c-2.4,1.2-6.3,1.9-11.5-2.3c-2.3-1.8-5-4.6-8.2-8.5c-5.6-6.8-12.2-16.2-18.5-25.3
			c-5.4-7.7-10.9-15.7-15.7-21.8c-1.7-2.2-3.2-3.9-4.4-5.3c0.4,1.8,1.1,3.9,1.9,6.6c2.3,7.4,5.8,16.5,9.1,25.3
			c3.9,10.4,8,21.2,10.4,29.6c1.4,4.8,2.2,8.6,2.4,11.5c0.4,6.6-2.3,9.5-4.6,10.8c-2.4,1.2-6.3,1.9-11.5-2.3c-2.3-1.8-5-4.6-8.2-8.5
			c-5.6-6.8-12.2-16.2-18.5-25.3c-5.4-7.7-10.9-15.7-15.7-21.8c-1.7-2.2-3.2-3.9-4.4-5.3c0.4,1.8,1,3.9,1.9,6.6
			c2.3,7.4,5.8,16.5,9.1,25.3c3.9,10.4,8,21.2,10.4,29.6c1.4,4.8,2.2,8.6,2.4,11.5c0.4,6.6-2.3,9.5-4.6,10.8
			C821.7,680.4,820.4,680.9,818.9,680.9z"/>
	</g>
	<g>
		<path class="st4" d="M1220.1,608c0-0.4,0-0.9,0-1.3C1220.1,607.1,1220.1,607.5,1220.1,608z"/>
		<path class="st4" d="M1219.9,602.2c0-0.5-0.1-1-0.1-1.5C1219.9,601.3,1219.9,601.7,1219.9,602.2z"/>
		<path class="st4" d="M1220,605c0-0.5,0-0.9,0-1.4C1220,604.1,1220,604.6,1220,605z"/>
		<path class="st4" d="M1220.1,611c0-0.4,0-0.9,0-1.3C1220.1,610.1,1220.1,610.5,1220.1,611z"/>
		<path class="st4" d="M1220,614c0-0.4,0-0.8,0-1.3C1220,613.2,1220,613.6,1220,614z"/>
		<path class="st4" d="M1219.8,599.6c0-0.6-0.1-1.1-0.1-1.7C1219.7,598.4,1219.7,599,1219.8,599.6z"/>
		<path class="st11" d="M1094.9,524.9c17.1-2.6,35.6,2.8,52.5,14.7c-4.8,3.4-9.5,7.4-14,11.9c-3.8,3.7-7.3,7.8-10.7,12.1
			c-8.4-4.7-16.4-6.5-22.8-5.5c-17.9,2.7-27.4,26.5-24.7,62.2c3.7,49,56.2,52.8,72.2,52.8s68.5-3.8,72.2-52.8
			c-0.7,9.2,6.2,17.3,15.5,18c9.2,0.7,17.3-6.2,18-15.5c-2.5,32.7-19.2,57.5-48.4,71.5c-23.1,11.1-47.8,12.3-57.3,12.3
			c-9.5,0-34.2-1.2-57.3-12.3c-29.2-14.1-45.9-38.8-48.4-71.5C1036.7,557.2,1065.9,529.3,1094.9,524.9z"/>
		<path class="st35" d="M1192.7,657.5c-9,2-18-3.7-20.1-12.7c-5.7-25.2-14.9-44.5-25.3-58.4c7.9-10.6,16.5-18.1,24.8-22.8
			c15.3,19.6,26.7,44.7,33.2,73.8C1207.4,646.5,1201.7,655.5,1192.7,657.5z"/>
		<path class="st36" d="M1205.4,637.4c-6.5-29-17.9-54.2-33.2-73.8c-0.1,0.1-0.3,0.2-0.4,0.2c13.7,18.9,23.9,42.5,30,69.4
			c2,9-3.7,18-12.7,20.1c-5.2,1.2-10.4-0.2-14.2-3.3c3.7,5.9,10.8,9.1,17.9,7.5C1201.7,655.5,1207.4,646.5,1205.4,637.4z"/>
		<path class="st4" d="M1219.8,617.1c0-0.4,0-0.7,0.1-1.1C1219.9,616.4,1219.9,616.8,1219.8,617.1z"/>
		<path class="st4" d="M1253.5,615.8c0-0.3,0-0.5,0-0.8C1253.5,615.3,1253.5,615.5,1253.5,615.8z"/>
		<path class="st4" d="M1253.3,619.4c0-0.3,0-0.6,0-0.9C1253.4,618.8,1253.3,619.1,1253.3,619.4z"/>
		<path class="st4" d="M1253.6,611.9c0-0.1,0-0.1,0-0.2C1253.6,611.8,1253.6,611.8,1253.6,611.9z"/>
		<path class="st11" d="M1199.9,524.9c-17.1-2.6-35.6,2.8-52.5,14.7c-4.8,3.4-9.5,7.4-14,11.9c-3.8,3.7-7.3,7.8-10.7,12.1
			c-15.3,19.6-26.7,44.7-33.2,73.8c-2,9,3.7,18,12.7,20.1c1.2,0.3,2.5,0.4,3.7,0.4c7.7,0,14.6-5.3,16.4-13.1
			c5.7-25.2,14.9-44.5,25.2-58.4c7.9-10.6,16.5-18.1,24.8-22.8c8.4-4.7,16.4-6.5,22.8-5.5c13.8,2.1,22.6,16.8,24.7,39.8
			c0,0.6,0.1,1.1,0.1,1.7c0,0.4,0.1,0.8,0.1,1.2c0,0.5,0.1,1,0.1,1.5c0,0.5,0,1,0.1,1.4c0,0.5,0,0.9,0,1.4c0,0.5,0,1.1,0,1.6
			c0,0.4,0,0.9,0,1.3c0,0.6,0,1.1,0,1.7c0,0.4,0,0.9,0,1.3c0,0.6,0,1.2,0,1.8c0,0.4,0,0.8,0,1.3c0,0.7-0.1,1.3-0.1,2
			c0,0.4,0,0.7-0.1,1.1c-0.1,1-0.1,2.1-0.2,3.2c-2.8,36.5-32.6,47.9-54.2,51.4v33.8c11.3-1.4,25.6-4.5,39.3-11.2
			c29.2-14.1,45.9-38.8,48.4-71.5c0,0,0,0,0,0c0.1-1.2,0.2-2.3,0.2-3.5c0-0.3,0-0.6,0-0.9c0-0.9,0.1-1.8,0.1-2.7c0-0.3,0-0.5,0-0.8
			c0-1.1,0.1-2.1,0.1-3.2c0-0.1,0-0.1,0-0.2C1254.6,554.1,1227.2,529,1199.9,524.9z"/>
		<path class="st12" d="M1117.8,560c-8.4-4.7-16.4-6.5-22.8-5.5c-17.9,2.7-27.4,26.5-24.7,62.2c1.5,19.6,10.8,32,22.5,39.8
			c-9.3-7.8-16.3-19.3-17.6-36.1c-2.7-35.7,6.8-59.5,24.7-62.2c6.4-1,14.4,0.8,22.8,5.5C1121.9,562.2,1121,561.7,1117.8,560z"/>
		<path class="st12" d="M1245.6,635.6c-6.1,24.7-21.7,43.5-45.8,55.1c-23.1,11.1-47.8,12.3-57.3,12.3c-9.5,0-34.2-1.2-57.3-12.3
			c-4.7-2.3-9.2-4.9-13.2-7.7c5.4,4.3,11.4,8.1,18.1,11.4c23.1,11.1,47.8,12.3,57.3,12.3c9.5,0,34.2-1.2,57.3-12.3
			c29.2-14.1,45.9-38.8,48.4-71.5C1252.7,628.2,1249.8,632.8,1245.6,635.6z"/>
		<g>
			<g>
				<path class="st12" d="M1194.9,558.1c2.6,0.4,5,1.2,7.2,2.4c-3.4-3.3-7.5-5.4-12.1-6.1c-6.4-1-14.4,0.8-22.8,5.5
					c-8.2,4.6-16.8,12.1-24.8,22.8c-10.4,13.9-19.6,33.1-25.2,58.4c-1.8,7.8-8.7,13.1-16.4,13.1c-1.2,0-2.5-0.1-3.7-0.4
					c-1.3-0.3-2.6-0.8-3.8-1.3c2.2,2.4,5.2,4.2,8.7,5c1.2,0.3,2.5,0.4,3.7,0.4c7.7,0,14.6-5.3,16.4-13.1
					c5.7-25.2,14.9-44.5,25.2-58.4c7.9-10.6,16.5-18.1,24.8-22.8C1180.6,558.9,1188.5,557.2,1194.9,558.1z"/>
				<path class="st12" d="M1222.3,533.6c15.6,13.1,27.1,36.8,26.4,74.5c0,0.1,0,0.1,0,0.2c0,1,0,2.1-0.1,3.2c0,0.3,0,0.5,0,0.8
					c0,0.9-0.1,1.8-0.1,2.7c0,0.3,0,0.6,0,0.9c-0.1,1.2-0.1,2.3-0.2,3.5c0,0,0,0,0,0c-2.5,32.7-19.2,57.5-48.4,71.5
					c-11.8,5.7-24,8.8-34.4,10.5v4.4c11.3-1.4,25.6-4.5,39.3-11.2c29.2-14.1,45.9-38.8,48.4-71.5c0,0,0,0,0,0
					c0.1-1.2,0.2-2.3,0.2-3.5c0-0.3,0-0.6,0-0.9c0-0.9,0.1-1.8,0.1-2.7c0-0.3,0-0.5,0-0.8c0-1.1,0.1-2.1,0.1-3.2c0-0.1,0-0.1,0-0.2
					C1254.4,570.2,1240.4,545.6,1222.3,533.6z"/>
			</g>
		</g>
		<path class="st37" d="M1142.4,564.8c-0.3,0-0.6-0.1-0.9-0.4c-0.5-0.5-0.5-1.2,0-1.7l9.4-9.4c0.5-0.5,1.2-0.5,1.7,0
			c0.5,0.5,0.5,1.2,0,1.7l-9.4,9.4C1143,564.7,1142.7,564.8,1142.4,564.8z"/>
		<path class="st37" d="M1218.4,560.1c-0.3,0-0.6-0.1-0.9-0.4c-0.5-0.5-0.5-1.2,0-1.7l9.4-9.4c0.5-0.5,1.2-0.5,1.7,0
			c0.5,0.5,0.5,1.2,0,1.7l-9.4,9.4C1219,560,1218.7,560.1,1218.4,560.1z"/>
		<path class="st37" d="M1220.1,577c-0.3,0-0.6-0.1-0.9-0.4c-0.5-0.5-0.5-1.2,0-1.7l9.4-9.4c0.5-0.5,1.2-0.5,1.7,0
			c0.5,0.5,0.5,1.2,0,1.7l-9.4,9.4C1220.7,576.9,1220.4,577,1220.1,577z"/>
		<path class="st37" d="M1114.8,598.8c-0.3,0-0.6-0.1-0.9-0.4c-0.5-0.5-0.5-1.2,0-1.7l9.4-9.4c0.5-0.5,1.2-0.5,1.7,0s0.5,1.2,0,1.7
			l-9.4,9.4C1115.5,598.7,1115.2,598.8,1114.8,598.8z"/>
		<path class="st37" d="M1117.9,692.8c-0.3,0-0.6-0.1-0.9-0.4c-0.5-0.5-0.5-1.2,0-1.7l9.4-9.4c0.5-0.5,1.2-0.5,1.7,0
			c0.5,0.5,0.5,1.2,0,1.7l-9.4,9.4C1118.6,692.6,1118.3,692.8,1117.9,692.8z"/>
		<path class="st37" d="M1100.9,692c-0.3,0-0.6-0.1-0.9-0.4c-0.5-0.5-0.5-1.2,0-1.7l9.4-9.4c0.5-0.5,1.2-0.5,1.7,0
			c0.5,0.5,0.5,1.2,0,1.7l-9.4,9.4C1101.5,691.8,1101.2,692,1100.9,692z"/>
		<path class="st37" d="M1114.5,613.9c-0.3,0-0.6-0.1-0.9-0.4c-0.5-0.5-0.5-1.2,0-1.7l9.4-9.4c0.5-0.5,1.2-0.5,1.7,0
			c0.5,0.5,0.5,1.2,0,1.7l-9.4,9.4C1115.2,613.7,1114.9,613.9,1114.5,613.9z"/>
		<path class="st37" d="M1083.1,549.8c-0.3,0-0.6-0.1-0.9-0.4c-0.5-0.5-0.5-1.2,0-1.7l9.4-9.4c0.5-0.5,1.2-0.5,1.7,0
			c0.5,0.5,0.5,1.2,0,1.7l-9.4,9.4C1083.7,549.6,1083.4,549.8,1083.1,549.8z"/>
		<path class="st37" d="M1061.5,556.5c-0.3,0-0.6-0.1-0.9-0.4c-0.5-0.5-0.5-1.2,0-1.7l9.4-9.4c0.5-0.5,1.2-0.5,1.7,0
			c0.5,0.5,0.5,1.2,0,1.7l-9.4,9.4C1062.2,556.3,1061.9,556.5,1061.5,556.5z"/>
		<path class="st37" d="M1056.3,584.9c-0.3,0-0.6-0.1-0.9-0.4c-0.5-0.5-0.5-1.2,0-1.7l9.4-9.4c0.5-0.5,1.2-0.5,1.7,0
			c0.5,0.5,0.5,1.2,0,1.7l-9.4,9.4C1056.9,584.8,1056.6,584.9,1056.3,584.9z"/>
		<path class="st37" d="M1198.9,676.9c-0.3,0-0.6-0.1-0.9-0.4c-0.5-0.5-0.5-1.2,0-1.7l9.4-9.4c0.5-0.5,1.2-0.5,1.7,0
			c0.5,0.5,0.5,1.2,0,1.7l-9.4,9.4C1199.5,676.8,1199.2,676.9,1198.9,676.9z"/>
		<path class="st37" d="M1218.4,672c-0.3,0-0.6-0.1-0.9-0.4c-0.5-0.5-0.5-1.2,0-1.7l9.4-9.4c0.5-0.5,1.2-0.5,1.7,0
			c0.5,0.5,0.5,1.2,0,1.7l-9.4,9.4C1219,671.9,1218.7,672,1218.4,672z"/>
		<path class="st37" d="M1220.1,645.2c-0.3,0-0.6-0.1-0.9-0.4c-0.5-0.5-0.5-1.2,0-1.7l9.4-9.4c0.5-0.5,1.2-0.5,1.7,0
			c0.5,0.5,0.5,1.2,0,1.7l-9.4,9.4C1220.7,645,1220.4,645.2,1220.1,645.2z"/>
		<path class="st38" d="M1165.4,592c-0.3,0-0.6-0.1-0.9-0.4c-0.5-0.5-0.5-1.2,0-1.7l9.4-9.4c0.5-0.5,1.2-0.5,1.7,0
			c0.5,0.5,0.5,1.2,0,1.7l-9.4,9.4C1166,591.9,1165.7,592,1165.4,592z"/>
		<path class="st38" d="M1179.4,603c-0.1,0-0.3,0-0.4-0.1l-12.5-4.4c-0.6-0.2-1-0.9-0.8-1.6c0.2-0.6,0.9-1,1.6-0.8l12.5,4.4
			c0.6,0.2,1,0.9,0.8,1.6C1180.4,602.7,1179.9,603,1179.4,603z"/>
		<path class="st36" d="M1172.1,563.7c-8.2,4.6-16.8,12.1-24.8,22.8c1,1.4,2.1,2.8,3.1,4.4c4.4-6.2,12.9-16.5,25.6-21.9
			C1174.8,567.1,1173.5,565.4,1172.1,563.7z"/>
	</g>
</g>
</svg>
